<svg width="65" height="65" viewBox="0 0 65 65" fill="none" xmlns="http://www.w3.org/2000/svg">
<path fill-rule="evenodd" clip-rule="evenodd" d="M0.743378 32.8484V64.8484H32.7434H64.7434V32.8484V0.848351H32.7434H0.743378V32.8484ZM41.3814 14.8294C48.1294 14.3744 47.7734 13.6204 47.1774 27.0984L46.6364 39.3484L39.4634 46.5993L32.2904 53.8513L24.4904 46.0993L16.6894 38.3484L16.9664 26.3484L17.2434 14.3484H21.9694C25.7864 14.3484 27.2224 13.8214 29.4344 11.6104L32.1734 8.87235L35.3464 11.9474C37.5724 14.1064 39.3714 14.9654 41.3814 14.8294ZM33.0094 12.4274C35.4744 15.3814 35.1864 16.0264 31.4934 15.8234C29.7054 15.7254 26.1064 15.6914 23.4934 15.7474L18.7434 15.8484V27.1254V38.4024L25.5194 45.1264L32.2954 51.8503L39.0194 45.0744L45.7434 38.2984V27.0734V15.8484H41.5484C38.3744 15.8484 36.6124 15.1784 34.3134 13.0984C32.6424 11.5864 32.0554 11.2834 33.0094 12.4274ZM25.5 18V22H30V23H25.5V27.0314H24.5V23H20V22H24.5V18H25.5ZM41.8244 19.9293C43.8024 21.9073 43.8194 22.1064 42.1824 23.9164C41.2334 24.9644 40.5374 27.0654 40.6344 28.5854C41.2814 38.7174 41.1344 39.8034 38.7714 42.3184C33.8804 47.5244 24.6764 44.4523 23.3884 37.1833C22.7024 33.3113 26.1994 27.5094 29.5074 27.0314C32.0934 26.6584 35.7434 22.3754 35.7434 19.7134C35.7434 17.1684 39.1854 17.2903 41.8244 19.9293ZM38.7434 20.8484C39.5684 21.3814 40.6934 21.8174 41.2434 21.8174C41.7934 21.8174 41.5684 21.3814 40.7434 20.8484C39.9184 20.3154 38.7934 19.8794 38.2434 19.8794C37.6934 19.8794 37.9184 20.3154 38.7434 20.8484ZM36.7434 22.8124C36.7434 24.5534 31.6764 28.8484 29.6234 28.8484C27.5064 28.8484 24.4074 34.1664 25.0674 36.6654C25.4114 37.9684 25.5374 37.8854 25.6274 36.2984C25.8114 33.0554 27.7814 31.8484 32.8934 31.8484C36.3224 31.8484 37.9574 32.3354 38.7694 33.5984C39.7744 35.1614 39.8184 35.1354 39.1834 33.3484C38.7924 32.2484 38.5584 30.4484 38.6634 29.3484C39.2264 23.4574 39.1394 22.5144 37.9934 22.1164C37.3064 21.8774 36.7434 22.1904 36.7434 22.8124ZM26.3204 40.1884C26.9704 41.8824 32.4894 44.4353 33.4424 43.4833C33.7914 43.1343 33.3874 42.8484 32.5454 42.8484C31.7024 42.8484 29.8294 41.9174 28.3834 40.7794C26.5934 39.3714 25.9344 39.1824 26.3204 40.1884ZM36.8434 41.1433C35.5784 43.2503 35.6004 43.2713 37.3224 41.6223C38.3134 40.6723 38.9094 39.6804 38.6464 39.4174C38.3834 39.1544 37.5724 39.9313 36.8434 41.1433ZM23.3384 47.0054C25.4914 49.4424 26.2434 50.8484 26.2434 50.8484L11.2434 45.0274L16.3384 44.9374C20.3724 44.8674 21.8304 45.2974 23.3384 47.0054ZM39.4634 49.0706C39.4634 49.0706 38.9954 49.4424 41.1484 47.0054C42.6564 45.2974 44.1144 44.8674 48.1484 44.9374L53.2434 45.0274L39.4634 49.0706Z" fill="black"/>
</svg>
