<svg width="64" height="65" viewBox="0 0 64 65" fill="none" xmlns="http://www.w3.org/2000/svg">
<path fill-rule="evenodd" clip-rule="evenodd" d="M0 32.5V64.5H32H64V32.5V0.5H32H0V32.5ZM40.8172 12.657H46V23.5V33.5L51 38L42.5 34L37 31.426L39 27.5L44 32C44 32 44 28.45 44 23.5V14.5H40.167C38.058 14.5 35.807 14.5 35.807 14.5L31 11.628L26.5 14.5C26.5 14.5 23.959 14.5 21.872 14.5H18.078L18 28.5L17 29.5L16 28.832V12.5L21.03 12.657H25.8499L31 7.5L36 12.657H40.8172ZM28.872 11.25C27.629 12.836 27.664 12.871 29.25 11.628C29.9915 11.046 31 10.248 31 10.248C31 10.248 32.0085 11.046 32.75 11.628C34.336 12.871 34.371 12.836 33.128 11.25C32.373 10.287 31 8.5 31 8.5C31 8.5 29.627 10.287 28.872 11.25ZM41 18.5L39.5 20L37.5 22L33.5 26L36.5 20.5C36.5 20.5 33.525 20.5 30.5 20.5H25L28.5 27.5L31 32L36 27L30.91 36.5L27.5 31C27.5 31 23.247 24.313 22.024 22.25L19.802 18.5H30.401C36.231 18.5 41 18.5 41 18.5ZM25 32C25 32 22.69 33.166 19.784 34.34L14.5 36.475L23.2714 28.832L25 32ZM30.91 45.5L38.5 40L43.633 36.5C43.633 36.5 41.336 39.635 37.534 43.466C33.7497 47.2793 31 50 31 50C31 50 26.8583 46.9275 22.765 42.106C19.914 38.748 19.5 38 19.5 38L30.91 45.5ZM27.5 45.5L31 48.967L34.75 45.003L37 42.5L34.5 44.5L31 47L28 45L24.5 42.5L27.5 45.5Z" fill="black"/>
</svg>
