<svg width="65" height="64" viewBox="0 0 65 64" fill="none" xmlns="http://www.w3.org/2000/svg">
<path fill-rule="evenodd" clip-rule="evenodd" d="M0.684937 32V64H32.6849H64.6849V32V0H32.6849H0.684937V32ZM40.1849 13C40.1849 13 39.7049 12.65 39.6849 11C39.6849 8.5 40.6849 8.61573 40.6849 11C40.6849 12.5 40.1849 13 40.1849 13ZM36.1849 15.209C33.4879 15.871 33.5849 17.028 34.2549 18.113C34.9219 19.193 33.4559 19.287 32.1139 18.25C31.5799 17.837 31.8269 18.176 32.6639 19.003C34.8619 21.176 35.0059 25.036 32.9459 26.6C31.9779 27.335 29.7229 27.951 27.9349 27.968C25.0319 27.997 24.6929 27.707 24.7549 25.25C24.7939 23.738 25.1629 21.638 25.5759 20.585C26.4839 18.271 32.7129 14.196 36.1849 14.209C37.1849 14.209 38.6849 14.5 38.6849 14.5C38.6849 14.5 36.843 15.0471 36.1849 15.209ZM43.6849 15C42.1849 15 41.6849 14.5 41.6849 14.5C41.6849 14.5 42.3099 14 43.6849 14C45.0599 14 45.1849 15 43.6849 15ZM40.6849 17.5C40.6849 19.5 39.7102 19.585 39.6849 17.5C39.6649 15.85 40.1849 15.5 40.1849 15.5C40.1849 15.5 40.6849 15.8277 40.6849 17.5ZM24.0449 23.389C23.5599 26.925 23.0389 27.966 21.9599 27.552C21.1689 27.248 20.1079 27 19.6029 27C17.6829 27 18.7969 22.801 21.3419 20.442C22.8029 19.088 24.1539 18.136 24.3449 18.327C24.5359 18.517 24.4009 20.795 24.0449 23.389ZM55.1849 27.5C55.1849 27.5 54.6849 27 54.6849 25C54.6849 24 55.6849 24 55.6849 25C55.6849 27 55.1849 27.5 55.1849 27.5ZM32.5969 32.593C29.3469 36.053 22.4989 35.135 19.8439 30.883C18.2339 28.305 18.4849 28.042 21.9349 28.705C23.7369 29.051 24.6849 29.862 24.6849 31.058C24.6849 32.061 25.1529 33.171 25.7249 33.525C26.3999 33.942 26.5369 33.259 26.1169 31.584C25.5329 29.259 25.7549 28.998 28.3269 28.985C29.8989 28.976 31.8599 28.538 32.6849 28.011C35.2049 26.401 35.1389 29.888 32.5969 32.593ZM50.1849 29C47.8859 29.662 48.6829 30.553 49.0659 31.551C49.7289 33.278 49.2679 33.345 46.3689 31.945C44.2589 30.926 44.2509 30.943 46.1259 32.445C47.1939 33.3 48.3339 34 48.6589 34C48.9849 34 49.2009 35.144 49.1399 36.543C48.9649 40.533 45.9549 42.578 40.9349 42.115C40.1979 42.047 39.6849 40.58 39.6849 38.54C39.6849 34.778 43.7019 30 46.8659 30C47.8009 30 48.8449 29.55 49.1849 29C49.5249 28.45 49.2049 27.951 50.6849 28C52.8721 28.0724 53.1849 28.5 53.1849 28.5C53.1849 28.5 52.6849 29 50.1849 29ZM58.1849 29C56.6849 29 57.1849 29 56.6849 28.5L58.1849 28C59.6849 28 60.1849 29 58.1849 29ZM54.6849 31C54.6849 32.132 54.6235 31.945 54.1849 33C53.6373 31.945 53.6849 31.793 53.6849 31C53.6849 30.207 54.1849 29.5 54.1849 29.5C54.1849 29.5 54.6849 29.868 54.6849 31ZM39.0249 36.75C38.2779 42.457 38.3529 42.347 35.7599 41.524C32.8899 40.613 33.1499 37.401 36.3309 34.452C37.7859 33.104 39.1279 32 39.3119 32C39.4959 32 39.3669 34.138 39.0249 36.75ZM27 40V43H30V45H27V48H25V45H22V43H25V40H27ZM49.6849 42.545C49.6849 44.254 45.3479 49 43.7869 49C43.2429 49 42.0559 47.987 41.1489 46.75L39.4999 44.5L40.1599 46.75C40.9819 49.554 39.7319 49.611 36.3199 46.927C32.9629 44.287 32.7139 41.526 35.9349 42.652C39.0009 43.724 45.7169 43.368 47.0209 42.064C48.5419 40.543 49.6849 40.75 49.6849 42.545Z" fill="black"/>
</svg>
