<svg width="64" height="64" viewBox="0 0 64 64" fill="none" xmlns="http://www.w3.org/2000/svg">
<path fill-rule="evenodd" clip-rule="evenodd" d="M0 32V64H32H64V32V0H32H0V32ZM34.5 12.5C34.5 12.5 36.206 13.084 38.901 14.45C46.747 18.426 50.758 25.312 49.723 33.028C49.365 35.695 49.776 37.748 51.107 39.936C52.148 41.648 53 43.524 53 43.524C53 43.524 51.246 44 49.102 44C46.782 44 43.442 45.007 40.852 46.488C34.953 49.86 28.047 49.86 22.148 46.488C19.558 45.007 16.5563 43.5 14.2363 43.5C11.8503 43.5 10.1813 43.1475 10.1813 43.1475C10.1813 43.1475 10.5821 41.6139 11.671 40.059C12.769 38.492 13.268 36.039 13.125 32.914C12.898 27.938 14.875 21.902 17.788 18.679C18.73 17.636 21.548 15.745 24.051 14.476C26.752 13.106 28 13 28 13L31.6689 7.258L34.5 12.5ZM28.6689 15.258H26.6689C23.7709 14.338 18.367 18.609 16.071 23.353C13.563 28.534 13.215 35.238 15.5 34.362L18.2363 34C18.2363 34 16.6467 35.8348 14.918 38.632L12.837 42H17.525C21.356 42 22.105 42.285 21.617 43.555C20.866 45.513 26.397 48 31.5 48C36.149 48 42 45.521 42 43.551C42 42.403 43.06 42 46.082 42H50.163L48.082 38.77C46.562 36 45.5 34 45.5 34L48 34.5C50 34 49.437 28.534 46.929 23.353C44.558 18.456 36.1689 15.258 36.1689 15.258H34.6689L31.6689 10.258L28.6689 15.258ZM42.5 23L40.852 26H25.077L27.788 30.468C29.28 32.926 31.5 36.5 31.5 36.5L37 28H40L38.78 30.25C37.983 31.488 36.089 34.638 34.57 37.25C33.052 39.862 31.5 42 31.5 42L20 23C20 23 25.161 23 31.469 23C41.252 23 42.5 23 42.5 23Z" fill="black"/>
</svg>
