<svg width="64" height="64" viewBox="0 0 64 64" fill="none" xmlns="http://www.w3.org/2000/svg">
<path fill-rule="evenodd" clip-rule="evenodd" d="M-2.87635e-06 32V64H32H64V32V0H32H-2.87635e-06V32ZM36 6.5L39.389 9H34.58C28.65 9 23.366 11.792 19.999 16.706C18.068 19.524 17.533 21.575 17.533 26.163C17.533 29.1201 16.9025 30.214 16.9025 30.214C16.9025 30.214 16.1327 28.0725 16.07 24.718C15.929 17.119 21.865 9.02 29.182 6.827C31.246 6.209 32.698 5.32 32.408 4.852C31.547 3.458 32.42 3.859 36 6.5ZM46.762 14.224C49.304 15.906 51.595 18.62 53.06 21.684C54.326 24.333 55.3354 27.5 56.086 27C56.3354 27.5 55.73 28.85 54.41 30.5L52.01 33.5L52.005 29.566C51.998 24.153 48.752 17.989 44.334 15C41.358 12.986 39.423 12.504 34.386 12.518C30.887 12.528 28.8354 12 28.8354 12C28.8354 12 33.26 11.064 36.633 11.247C41.212 11.496 43.78 12.25 46.762 14.224ZM39.377 24.423C42.47 29.606 45 34.423 45 34.423L33 34.5H22L24.5 29.5L25.5 27.5H34.5L35.5 29.5H30.5L29.5 31.5H39.5L37.3354 27.5L33.127 20.5L30.5 24.423H27.3354L30.3354 19.5L33.127 15.007C33.127 15.007 36.284 19.24 39.377 24.423ZM14.545 30.775C14.823 32.027 16.663 34.835 18.633 37.016C22.721 41.54 28.208 43.49 34.458 42.639C36.1143 42.4134 37.181 42.4745 37.181 42.4745C37.181 42.4745 37.0684 42.7221 36.5 42.974C33.445 44.327 26.311 44.158 22.718 42.648C18.439 40.85 13.307 35.459 11.945 31.333C11.34 29.5 11.182 27.4105 9.854 28C9.854 28 9.907 26.538 11.182 24.75L13.5 21.5L13.77 25C13.918 26.925 14.267 29.524 14.545 30.775ZM49.93 30.185C50.077 37.927 45.81 43.772 37.181 47.647L31.861 50.036L29.296 48.018L26.73 46H30.897C41.767 46 49.8354 37.5 48.546 26.312L48.3848 23.6818L49.3354 26.5C49.8354 28 49.891 28.158 49.93 30.185Z" fill="black"/>
</svg>
