<svg width="65" height="65" viewBox="0 0 65 65" fill="none" xmlns="http://www.w3.org/2000/svg">
<path fill-rule="evenodd" clip-rule="evenodd" d="M0.5 32.5916V64.5916H32.5H64.5V32.5916V0.591553H32.5H0.5V32.5916ZM27.5 5.59155L28.389 13.4146C28.48 16.9666 28.5 15.5916 30.25 17.3926C32 15.5916 32.027 16.0656 32.082 14.0696C32.211 9.42355 33.5 7.59155 33.5 7.59155C33.5 7.59155 34.5 9.52955 34.5 10.6746C34.5 11.9106 35.008 12.5786 35.75 12.3156C36.438 12.0726 36.91 10.6486 36.801 9.15155C36.707 7.87251 36.5 6.59155 36.5 6.59155C36.5 6.59155 37.5405 7.21067 38.155 7.72055C40.482 9.65155 41.65 13.4426 40.551 15.4956C40.03 16.4706 39.862 18.2586 40.178 19.4696C40.724 21.5546 40.853 21.5816 42.627 19.9766C43.523 19.1656 44.5 18.5916 44.5 18.5916C44.5 18.5916 44.5116 19.5501 44.522 20.6866L44.544 23.0916L46.592 20.5916L48.639 18.0916L48.032 23.5916C47.698 26.6166 46 32.5916 47.5 31.5916C46.5 34 44.5 36.0916 44.5 36.0916L43.5 33.5916C43.5 33.5916 42.191 30.1336 40.098 27.8496C37.244 24.7356 36.041 24.1366 32.641 24.1366C26.715 24.1366 22.89 27.3186 22.5 32.5916C22.0456 34.1367 21.978 35.015 22 36.5916C20.5 33.5916 17.5 31.5916 17.5 31.5916C19.5 32.5916 19.126 30.7376 18.45 28.9596C17.927 27.5856 17.518 24.5786 17.539 22.2766L17.578 18.0916L18.94 21.2216C19.69 22.9426 20.909 24.7166 21.651 25.1636C22.714 25.8036 22.755 25.6706 21.844 24.5336C20.556 22.9286 19.911 13.5916 19.911 13.5916C19.911 13.5916 21.035 14.8296 21.628 16.3416L22.706 19.0916L23.658 16.6056C24.182 15.2386 25.6891 12.0916 24.5 12.0916L26.5 7.59155L27.5 5.59155ZM38.423 29.1806C42.233 32.3866 42.347 34.8666 38.75 36.3076C36.027 37.3986 36.025 37.4076 38.5 37.2506C40.701 37.1106 41.037 37.5396 41.31 40.8416C41.595 44.2796 41.408 44.5916 39.06 44.5916C37.652 44.5916 36.5 45.1046 36.5 45.7316C36.5 46.3586 35.712 47.4846 34.75 48.2336C33.083 49.5316 33.083 49.5676 34.75 48.9866C35.712 48.6516 36.5 48.8266 36.5 49.3766C36.5 49.3766 32.12 51.7666 30.079 50.9836C29.3003 50.6849 28.5 49.0916 28.5 49.0916L30.75 49.3973L33 49.6026L30.75 48.4436C29.512 47.8076 28.5 46.6796 28.5 45.9386C28.5 45.1596 27.42 44.5916 25.94 44.5916C23.592 44.5916 23.405 44.2796 23.69 40.8416C23.963 37.5396 24.299 37.1106 26.5 37.2506C28.975 37.4076 28.973 37.3986 26.25 36.3076C24.738 35.7016 23.5 34.4326 23.5 33.4876C23.5 30.9556 29.195 26.5916 32.5 26.5916C34.103 26.5916 36.69 27.7226 38.423 29.1806ZM17.491 43.4526C15.846 46.1256 13.5 49.5916 13.5 49.5916C13.5 49.5916 17.087 49.6546 20.25 49.8526L26 50.2136L19.167 50.4026C15.408 50.5066 12.5 50.0916 12.5 50.0916L19.741 38.5926C19.741 38.5926 19.136 40.7786 17.491 43.4526ZM24.929 40.5916C24.929 42.9086 25.368 42.9976 29.185 41.4516L32 40.3106L29.5 39.5506C25.512 38.3386 24.929 38.4716 24.929 40.5916ZM35.5 39.5506L33 40.3106L35.815 41.4516C39.632 42.9976 40.071 42.9086 40.071 40.5916C40.071 38.4716 39.488 38.3386 35.5 39.5506ZM48.962 45.8416L51.69 50.5916L44.845 50.4026L38 50.2136L43.75 49.8526C46.913 49.6546 49.5 49.2566 49.5 48.9696C49.5 48.6826 48.301 46.3426 46.835 43.7696C45.37 41.1966 45 40 45 40C45 40 47.462 43.2296 48.962 45.8416ZM31.5 43.5916C31.5 44.1416 31.95 44.5916 32.5 44.5916C33.05 44.5916 33.5 44.1416 33.5 43.5916C33.5 43.0416 33.05 42.5916 32.5 42.5916C31.95 42.5916 31.5 43.0416 31.5 43.5916ZM34.5 54.0916C34.5 54.0916 33.5 56.0916 32.5 57.0916C32 56.5916 30.729 54.7796 30.5 54.0916C30.5 54.0916 31 53.5916 32.5 53.5916C34 53.5916 34.5 54.0916 34.5 54.0916Z" fill="black"/>
</svg>
