<svg width="65" height="65" viewBox="0 0 65 65" fill="none" xmlns="http://www.w3.org/2000/svg">
<path fill-rule="evenodd" clip-rule="evenodd" d="M0.140442 32.7249V64.7249H32.1404H64.1404V32.7249V0.724945H32.1404H0.140442V32.7249ZM34.7324 15.9719C36.6394 18.2229 36.6384 18.2239 34.5614 16.4749C31.8224 14.1689 30.9244 14.2619 28.2294 17.1309C26.3594 19.1209 26.1404 20.2249 26.1404 20.2249L27.6404 23.7249H13.1404L20.1404 11.7249H22.1404L16.6404 21.7249C16.6404 21.7249 18.7154 21.7249 20.6404 21.7249C22.2738 21.7249 24.6404 21.7249 24.6404 21.7249C24.6404 21.7249 24.6404 21.7249 21.6404 16.9549L22.6404 15.2249L25.6404 19.7249L28.4684 15.7469C30.0254 13.8969 31.1884 11.2469 31.2554 9.39795C31.3694 6.26095 31.3784 6.26694 32.0974 9.97194C32.4974 12.0319 33.6834 14.7319 34.7324 15.9719ZM49.1404 23.7249H35.5L38 18.7029H42.6404L44 21H40.1404V22H46.6404L42.1404 15L41.1404 16.7249H39.1404L42.6404 11.7249L49.1404 23.7249ZM16.6404 28.7249L12.7344 32.7249L16.6874 36.9749L20.6404 41.2249L16.5984 37.4749C13.9954 35.0599 11.5924 33.7249 9.84844 33.7249C8.35944 33.7249 7.14044 32.7249 7.14044 32.7249C7.14044 32.7249 8.40244 31.7249 9.94444 31.7249C11.8354 31.7249 13.8514 30.5859 16.1404 28.2249C18.0064 26.2999 19.7604 24.7249 20.0394 24.7249C20.3184 24.7249 18.7884 26.5249 16.6404 28.7249ZM53.4324 31.7249C54.9214 31.7249 56.1404 32.7249 56.1404 32.7249C56.1404 32.7249 54.9214 33.7249 53.4324 33.7249C51.6884 33.7249 49.2854 35.0599 46.6824 37.4749L42.6404 41.2249L46.5934 36.9749L50.5464 32.7249L46.5934 28.4749L42.6404 24.2249L46.6824 27.9749C49.2854 30.3899 51.6884 31.7249 53.4324 31.7249ZM35.6404 29.7249L32.7664 32.7249L35.4534 35.5299C36.9314 37.0719 38.1404 39.5129 38.1404 39.5129C38.1404 39.5129 35.2154 39.6439 31.6404 39.7249C28.0654 39.8059 25.1404 39.7249 25.1404 39.7249C25.1404 39.7249 26.2714 37.0109 27.6544 35.7119L30.1684 33.3499L26.9584 30.0369L23.7484 26.7249H31.1314H38.5144L35.6404 29.7249ZM30.9404 29.9249C31.8734 30.8579 32.4074 30.8579 33.3404 29.9249C34.2734 28.9919 34.0074 28.7249 32.1404 28.7249C30.2734 28.7249 30.0074 28.9919 30.9404 29.9249ZM30.6404 35.7249C30.3004 36.2749 30.7504 36.7249 31.6404 36.7249C32.5304 36.7249 32.9804 36.2749 32.6404 35.7249C32.3004 35.1749 31.8504 34.7249 31.6404 34.7249C31.4304 34.7249 30.9804 35.1749 30.6404 35.7249ZM49.1404 41.7249C49.1404 41.7249 49.0664 44.7249 44.0584 44.7249H39.0944L40.8114 47.3449L42.5274 49.9649L44.2444 47.8449C45.5884 46.1854 45.1404 45.7249 48.1404 45.7249C48.1404 45.7249 47.1899 47.5093 45.7194 49.9749C44.3254 52.3119 42.6404 54.2249 42.6404 54.2249C42.6404 54.2249 40.4844 51.4129 38.5464 47.9749L35.0244 41.7249H41.0004C44.2874 41.7249 48.2744 41.3919 49.1404 41.7249ZM26.8774 44.9749C25.7914 46.5959 24.3874 47.2249 21.8534 47.2249C18.7644 47.2249 18.4544 47.4459 19.3074 49.0399C20.0884 50.4959 20.5664 50.6159 21.7344 49.6469C22.7513 48.8029 22.1404 48.7249 24.1404 48.7249C24.1404 48.7249 23.6064 50.6101 22.5164 52.2739L20.7324 54.9959L19.1864 52.6959C18.3364 51.4309 16.6024 48.6699 15.3334 46.5599L13.0274 42.7249H20.7054H28.3844L26.8774 44.9749ZM18.9024 45.4319C20.1464 45.6709 21.9464 45.6619 22.9024 45.4119C23.8584 45.1619 22.8404 44.9659 20.6404 44.9769C18.4404 44.9879 17.6584 45.1929 18.9024 45.4319ZM31.6404 50.7249C32.1034 50.7249 33.4184 49.9369 34.5614 48.9749C36.6314 47.2319 36.6324 47.2339 34.7724 49.4339C33.7454 50.6489 32.1404 55.7249 32.1404 55.7249L31.6404 57.2249L31.1404 55.7249C31.1404 55.7249 30.1504 51.6969 28.9404 50.1099C26.9634 47.5179 26.9464 47.4029 28.7694 48.9749C29.8854 49.9369 31.1774 50.7249 31.6404 50.7249Z" fill="black"/>
</svg>
