<svg width="64" height="64" viewBox="0 0 64 64" fill="none" xmlns="http://www.w3.org/2000/svg">
<path fill-rule="evenodd" clip-rule="evenodd" d="M0 32V64H32H64V32V0H32H0V32ZM17.171 13.655C18.873 15.195 19.127 15.195 20.829 13.655C23.168 11.538 26.832 11.538 29.171 13.655C30.873 15.195 31.127 15.195 32.829 13.655C33.835 12.745 35.712 12 37 12C38.288 12 40.165 12.745 41.171 13.655C42.873 15.195 43.127 15.195 44.829 13.655C47.936 10.843 48.5 11.741 48.5 19.5C48.5 23.625 48.263 27 47.973 27C47.682 27 46.481 26.325 45.304 25.5C43.382 24.154 42.846 24.18 40.081 25.75C37.172 27.402 36.833 27.405 34 25.797C31.174 24.192 30.826 24.192 28 25.797C25.167 27.405 24.828 27.402 21.919 25.75C19.154 24.18 18.618 24.154 16.696 25.5C15.519 26.325 14.318 27 14.027 27C13.737 27 13.5 23.625 13.5 19.5C13.5 11.741 14.064 10.843 17.171 13.655ZM24 19.5C24 26.407 24.75 27.25 28 24C30.398 21.602 30.567 18.254 28.443 15.223C25.474 10.983 24 12.401 24 19.5ZM36 19.5C36 23.167 36.436 26 37 26C37.564 26 38 23.167 38 19.5C38 15.833 37.564 13 37 13C36.436 13 36 15.833 36 19.5ZM15.064 19.5C15.064 24.99 15.188 25.335 16.532 23.559C17.339 22.491 18 20.665 18 19.5C18 18.335 17.339 16.509 16.532 15.441C15.188 13.665 15.064 14.01 15.064 19.5ZM21.035 15.934C19.593 18.629 19.744 21.279 21.468 23.559C22.815 25.339 22.939 25.024 22.968 19.75C23.002 13.579 22.659 12.901 21.035 15.934ZM33.035 15.934C31.593 18.629 31.744 21.279 33.468 23.559C34.815 25.339 34.939 25.024 34.968 19.75C35.002 13.579 34.659 12.901 33.035 15.934ZM39.064 19.5C39.064 24.99 39.188 25.335 40.532 23.559C41.339 22.491 42 20.665 42 19.5C42 18.335 41.339 16.509 40.532 15.441C39.188 13.665 39.064 14.01 39.064 19.5ZM45.2 15.2C43.553 16.847 43.693 21.212 45.468 23.559C46.815 25.339 46.939 25.024 46.968 19.75C46.986 16.587 46.865 14 46.7 14C46.535 14 45.86 14.54 45.2 15.2ZM20.548 30.093C21.428 31.794 21.97 33.363 21.753 33.58C21.536 33.797 20.61 32.406 19.695 30.487C16.696 24.5 17.1677 23.559 20.548 30.093ZM42.033 31.447C39.049 36.274 38.383 35.968 41.204 31.067C44.2644 25.75 44.791 25.791 45 26C45.209 26.21 43.24 29.493 42.033 31.447ZM35.535 31.444C38.129 34.038 37.969 36.585 35.165 37.327C34.015 37.632 34.195 37.804 35.75 37.884C37.558 37.977 38 38.59 38 41C38 43.333 37.556 44 36 44C34.889 44 34 44.667 34 45.5C34 46.488 33.012 47 31.107 47C29.458 47 27.966 46.355 27.638 45.5C27.322 44.675 26.374 44 25.531 44C24.497 44 24 43.027 24 41C24 38.596 24.447 37.973 26.25 37.864L28.5 37.728L26.25 37.294C23.178 36.703 23.368 33.642 26.635 31.073C30.092 28.353 32.547 28.456 35.535 31.444ZM29 35.214C29 35.646 29.9 36 31 36C32.1 36 33 35.646 33 35.214C33 34.782 32.1 34.429 31 34.429C29.9 34.429 29 34.782 29 35.214ZM25 40.893C25 42.052 25.364 43 25.809 43C27.126 43 30 40.893 30 40.893C29.357 40.875 27.452 39.727 26.582 39.393C25.448 38.958 25 39.383 25 40.893ZM35 39.5L32 41C32 41 34.548 42.273 35.418 42.607C36.552 43.042 37 42.617 37 41.107C37 38.962 36.5 39 35 39.5ZM30 44C30 44.55 30.45 45 31 45C31.55 45 32 44.55 32 44C32 43.45 31.55 43 31 43C30.45 43 30 43.45 30 44ZM32.838 49.031C31.79 49.642 30.312 49.654 28.838 49.064C26.793 48.244 27.001 48.123 30.5 48.094C33.55 48.069 34.105 48.291 32.838 49.031Z" fill="black"/>
</svg>
