<svg width="65" height="65" viewBox="0 0 65 65" fill="none" xmlns="http://www.w3.org/2000/svg">
<path fill-rule="evenodd" clip-rule="evenodd" d="M0.395046 32.2959V64.2959H32.395H64.395V32.2959V0.295898H32.395H0.395046V32.2959ZM36.895 9.2959C38.476 10.9459 40.922 12.3569 42.332 12.4319L44.895 12.5679L42.395 13.0169C41.02 13.2639 39.467 13.8769 38.945 14.3809C38.1076 15.1877 37 15.1877 37 15.1877C37 15.1877 37.2092 14.4154 37.5 13.5C37.862 12.359 36.275 11.154 35 10C34.9649 9.96825 33 8.53084 33 8.53084C33 8.5 31 10 31 10C30 11 29.5 11.5 29.5 13C30 14 30.0258 15.1877 30.0258 15.1877C30.0258 15.1877 27.9654 14.3616 27 13.5C25.5 13 25.77 13.2739 24.395 13.0229L21.895 12.5679L24.458 12.4319C25.868 12.3569 28.314 10.9459 29.895 9.2959C31.476 7.6459 33 6 33 6C33 6 35.314 7.6459 36.895 9.2959ZM44.7673 17.5707L41.2673 24.0707H32.2673L31.2673 22.0707H38.2673L39.0676 20.2959C33.4286 20.2959 27.2673 20.2959 27.2673 20.2959L33.2673 32.5707L36.054 27.5707H38.7673L33.2673 36.2959L22.2673 17.5707C22.2673 17.5707 27.2173 17.5707 33.2673 17.5707C39.3173 17.5707 44.7673 17.5707 44.7673 17.5707ZM27.151 31.4789C26.2673 32.4115 16.767 36.0009 16.767 36.0009C16.767 36.0009 23.1703 31.3815 25.7673 29.4115C25.7673 29.4115 27.7673 29.9115 27.151 31.4789ZM50.013 36.0109C50.013 36.0109 47.3543 35.4769 44.2673 34.2959C39.7091 31.8689 39.318 31.7639 39.7673 30.4115C41.2673 29.4115 45.7673 32.5707 45.7673 32.5707C48.4843 34.5997 50.013 36.0109 50.013 36.0109ZM30.736 36.2959C31.711 37.9459 33.2673 40.5707 33.2673 40.5707C33.2673 40.5707 35.079 37.9459 36.054 36.2959C37.029 34.6459 38.395 32.9115 38.395 32.9115C38.395 32.9115 40.41 34.9379 41.94 36.9439L44.722 40.5919L42.059 40.0829C39.588 39.6099 39.395 39.8249 39.395 43.0419C39.395 44.751 38.895 46.9115 38.895 46.9115C38.895 46.9115 38.3195 46.0972 37.923 45.9449C36.873 45.5419 36.109 46.5179 35.264 49.3379C34.612 51.5149 33.2673 53.5707 33.2673 53.5707C33.2673 53.5707 32.133 51.5329 31.422 49.3779C30.563 46.7749 29.671 45.6369 28.762 45.9849C28.4257 46.1142 27.895 46.9115 27.895 46.9115C27.895 46.9115 27.395 44.7104 27.395 43.0419C27.395 39.8249 27.202 39.6099 24.731 40.0829L22.068 40.5919L24.85 36.9439C26.38 34.9379 28.395 32.9115 28.395 32.9115C28.395 32.9115 29.761 34.6459 30.736 36.2959Z" fill="black"/>
</svg>
