<svg width="64" height="64" viewBox="0 0 64 64" fill="none" xmlns="http://www.w3.org/2000/svg">
<path fill-rule="evenodd" clip-rule="evenodd" d="M0 32V64H32H64V32V0H32H0V32ZM38.686 7.174C41.428 9.751 41.732 12.951 39.25 13.116C34.536 13.116 34.536 13.311 39.25 13.689C40.5 14.016 41 15.156 41 17.68C41 20.394 40.656 21.082 39.515 20.644C38.643 20.309 38.118 20.347 37.5 21.5C32.969 22.592 35.5 24 37.024 24C37.626 24 37.84 24.45 37.5 25C36.52 26.586 30 26.5 31.3 24.659C35.5 22.592 32.969 21.5 28.786 20.5C28.066 20.5 27.362 19.07 27.187 17.25C26.94 14.695 27.261 13.975 28.687 13.884C34 13.311 33.464 13.311 28.75 13.311C26.293 12.669 26.574 10.335 29.455 7.455C37.16 17.25 31 17.25 38.686 7.174ZM37 15.974L34.5 16.623L36.765 17.854C38.662 18.886 39.128 18.829 39.638 17.5C40.432 15.432 40.017 15.192 37 15.974ZM21.262 16.737L16.024 17.104L19.023 23.046C20.673 26.314 22.018 29.216 22.011 29.494C21.993 30.317 22.357 30.25 25.355 28.884C27.794 27.773 28.63 27.825 31.105 29.245C33.81 30.798 34.197 30.795 37 29.203C39.833 27.595 40.172 27.598 43.081 29.25C45.846 30.82 46.382 30.846 48.304 29.5C49.481 28.675 51.132 28.036 51.973 28.079C53.001 28.132 54.5 27.7528 52.25 28.662C51.421 28.997 51 31.469 51 36C51 40.531 51.421 43.003 52.25 43.338C54.034 43.921 54.034 43.8156 51.973 43.921C51.132 43.964 49.481 43.325 48.304 42.5C46.382 41.154 45.846 41.18 43.081 42.75C40.226 44.372 39.792 44.382 37.16 42.888C34.631 41.453 34.012 41.438 31.507 42.75C29.017 44.055 28.324 44.048 25.471 42.688C23.699 41.843 21.855 41.516 21.374 41.963C20.894 42.41 19.375 43.101 18 43.5C15 44.3705 15.728 43.985 16.75 42.912C17.445 42.183 18 39.113 18 36C18 32.864 17.45 29.841 16.75 29.129C14.5 27.5 14.5 28 18.183 28.521L22.011 29.494L17.366 22.592L13.866 16L20.183 16.185L26.5 16.37L21.262 16.737ZM28.687 16.737C28.687 17.962 29.404 18.854 31 18C32.1 17.411 33.464 16.878 33.464 16.623C33.464 16.367 32.1 16 31 16C29.869 16 28.687 15.869 28.687 16.737ZM51.597 20.75C49.301 25.225 46.193 28.5 46.193 28.5C46.368 27.95 47.742 25.161 49.246 22.302L51.981 17.104L46.741 16.737L41.5 16.37L47.767 16.185L54.034 16L51.597 20.75ZM28 36C28 40.491 28.369 42.89 29 42.5C29.55 42.16 30 39.235 30 36C30 32.765 29.55 29.84 29 29.5C28.369 29.11 28 31.509 28 36ZM39 36C39 40 39.429 43 40 43C40.571 43 41 40 41 36C41 32 40.571 29 40 29C39.429 29 39 32 39 36ZM19.015 36.191C19.026 39.988 19.307 41.073 20 40C21.274 38.029 21.274 32.287 20 31.5C19.381 31.117 19.006 32.903 19.015 36.191ZM24.586 33.25C24.144 34.763 24.144 37.237 24.586 38.75L25.389 41.5L25.761 38.75C25.965 37.237 25.965 34.763 25.761 33.25L25.389 30.5L24.586 33.25ZM31.031 36C31.031 39.916 31.31 41.068 32 40C32.533 39.175 32.969 37.375 32.969 36C32.969 34.625 32.533 32.825 32 32C31.31 30.932 31.031 32.084 31.031 36ZM36.558 32.25C35.353 36.215 35.357 38.099 36.574 39.704C37.78 41.294 37.94 40.897 37.968 36.25C37.998 31.262 37.385 29.524 36.558 32.25ZM42.064 36C42.064 41.051 42.184 41.341 43.532 39.559C44.339 38.491 45 36.89 45 36C45 35.11 44.339 33.509 43.532 32.441C42.184 30.659 42.064 30.949 42.064 36ZM48.046 33.25C46.89 35.575 46.89 36.425 48.046 38.75L49.412 41.5L49.773 38.75C49.971 37.237 49.971 34.763 49.773 33.25L49.412 30.5L48.046 33.25ZM34 49.962C34.295 49.352 37.713 46.04 38.5 45C38.5 45 38.255 46.069 35.882 49.962L33.771 53.425L31.927 49.962C29.733 45.842 30 45 30 45C30.787 46.04 33.705 49.352 34 49.962Z" fill="black"/>
</svg>
