<svg width="64" height="64" viewBox="0 0 64 64" fill="none" xmlns="http://www.w3.org/2000/svg">
<path fill-rule="evenodd" clip-rule="evenodd" d="M64 32V0H32H0V32V64H32H64V32ZM23.5 54L22.5 53.526C19.936 51.947 14.5 50 14.5 50L10 50.524L13 47.5L13.33 39.388C13.33 39.388 13.222 33.803 13.799 32.148C14.757 29.4 14.573 28.913 11.674 26.537L8.5 23.935L15.1456 27L18.6456 23.809L24.825 18.911L30.055 14.183L32.213 10.525L34.01 14.027L39.938 19.353L47.5 25.5C47.5 25.5 48.397 26.849 51.4 25.402L54.5 23.908L51.89 26.204C49.638 28.185 49.404 28.912 50.186 31.5C50.685 33.15 50.878 36.56 50.614 39.078C50.255 42.511 50.617 44.388 52.061 46.578L54 50.5C54 50.5 44.442 52.007 41.852 53.488L32.5 55.995L31.5 62L30.5 55.995L23.5 54ZM40.25 53.428L43 50.468L51.5 49.5L47.5 43.5L49.5 40.5C49.5 40.5 50.26 34.814 48.998 31.494L47.996 28.858L42.5 32.5L41.5 31L47 27.5L46 25.402L37.5 19.353H35.5L32.213 14.183L28.6456 19.353H26.8574C26.8574 19.353 20.4726 23.931 16.6456 27.5L19.1456 29.5L22.3471 32.148L18.405 30.6486L15.6456 29.5L14.213 36.14L14.5 41H17L13.33 49H22.5V52.5L30.5 55L31 48H32L32.5 55C32.5 55 38.738 54.249 40.25 53.428ZM24 44H20.959L23 40L24 37.7826H34L35 40H25.5L24.5 42H31.5H37.5L34.75 35.956L31.5 30L29.5 33.854H26.5C26.5 33.7826 31.5 25 31.5 25L36.5 34.5L41 44H24Z" fill="black"/>
</svg>
