<svg width="65" height="64" viewBox="0 0 65 64" fill="none" xmlns="http://www.w3.org/2000/svg">
<path fill-rule="evenodd" clip-rule="evenodd" d="M0.5 32V64H32.5H64.5V32V0H32.5H0.5V32ZM27.4139 17.9633C36.5145 23.6524 42.2998 29.2894 35.1075 25.4592C33.0285 24.3525 33.0217 24.3702 34.7448 26.3434C38.3395 30.4581 34.6256 29.0983 24.2731 22.5093C18.4152 18.7815 12.5785 14.3764 11.3024 12.7202L8.98194 9.71028L12.7405 10.4251C14.8088 10.818 21.4115 14.21 27.4139 17.9633ZM43.2297 24.4962C41.3058 28.1452 45.5434 33.4769 50.3686 33.4769C52.4418 33.4769 53.2069 35.3172 51.8319 36.9989C50.7798 38.2858 50.3841 38.2375 48.597 36.606C47.477 35.583 45.1061 33.9062 43.3276 32.8802L40.0947 31.0154L37.7945 33.9308C33.6084 39.2379 34.2697 35.7996 38.9369 27.9936C42.8399 21.4666 46.3221 18.6289 43.2297 24.4962ZM16.2886 28.3077C20.4447 32.9452 24.4583 34.0017 28.7085 31.5766C33.9798 28.5676 34.5005 29.5887 29.6947 33.5104C26.5587 36.0694 25.6675 37.5394 25.1575 40.9935C24.3119 46.72 22.8059 46.4788 22.7914 40.6154C22.7788 35.8439 18.8942 31.5077 14.6314 31.5077C12.8229 31.5077 11.8125 29.8466 12.5048 28.0143C13.2215 26.1179 14.4093 26.2105 16.2886 28.3077ZM40.788 42.4025C53.2021 50.0844 58.3415 55.741 51.4799 54.1706C47.2074 53.1919 27.7019 41.2583 27.6728 39.6052C27.6564 38.656 28.4205 38.7358 30.803 39.9321L33.9545 41.5143L31.0455 39.0085C25.7567 34.4517 30.7507 36.1915 40.788 42.4025Z" fill="black"/>
</svg>
