<svg width="64" height="64" viewBox="0 0 64 64" fill="none" xmlns="http://www.w3.org/2000/svg">
<path fill-rule="evenodd" clip-rule="evenodd" d="M0 32V64H32H64V32V0H32H0V32ZM39 13.92C43.63 15.221 49 21.5 49 21.5C49 21.5 45.5 25.408 41.222 28.405L33.444 33.855L33.472 43.928C33.498 53.342 33.369 54 31.5 54C29.632 54 29.502 53.342 29.528 44.044L29.557 34.089L21.149 27.975L13.624 21.5L16.5 19C16.487 19.013 21.149 15 24.186 13.856C26.882 13.165 29.582 12.003 30.187 11.275C30.6875 10.6719 31.5 10 31.5 10C31.5 10 32.2919 10.7957 32.893 11.302C33.777 12.046 36.525 13.224 39 13.92ZM29.57 13.887C29.269 14.374 27.555 15.051 25.761 15.39C21.604 16.175 15.999 21.5 15.999 21.5C15.999 21.5 29.915 33 31.5 33C33.085 33 47 21.5 47 21.5C47 21.5 41.597 16.284 37.54 15.418C35.868 15.061 33.825 14.259 33 13.635C31.716 12.664 31.686 12.739 32.794 14.155C33.667 15.273 33.992 18.359 33.794 23.655C33.529 30.735 33.305 31.5 31.5 31.5C29.695 31.5 29.471 30.735 29.206 23.655C29.022 18.732 29.347 15.287 30.079 14.405C30.72 13.632 30.991 13 30.681 13C30.372 13 29.871 13.399 29.57 13.887ZM37.5 24C38.495 25.1 39.085 26 38.81 26C38.535 26 37.495 25.1 36.5 24C35.505 22.9 34.915 22 35.19 22C35.465 22 36.505 22.9 37.5 24ZM27 23.378C27 23.585 26.212 24.373 25.25 25.128C23.664 26.371 23.629 26.336 24.872 24.75C26.179 23.084 27 22.555 27 23.378ZM31.232 27C31.232 28.925 31.438 29.712 31.689 28.75C31.941 27.788 31.941 26.212 31.689 25.25C31.438 24.288 31.232 25.075 31.232 27ZM49.619 33.966C51.056 34.396 51.7407 34.7341 51.7407 34.7341C51.7407 34.7341 51.1515 34.8749 50.027 34.914C48.427 34.97 45.25 37.206 41.027 41.25L34.5 47.5L40.748 40.975L46.996 34.45L44.248 31.503C41.582 28.645 41.579 28.625 44.119 30.83C45.56 32.08 48.035 33.491 49.619 33.966ZM18.222 32.223L15.999 34.445L22.25 40.973L28.5 47.5L21.973 41.25C17.76 37.216 14.569 34.968 12.973 34.91C12.0119 34.8749 11.4115 34.7371 11.4115 34.7371C11.4115 34.7371 12.0328 34.3752 13.624 33.914C15.343 33.416 17.31 32.331 17.997 31.504C18.683 30.677 19.515 30 19.845 30C20.175 30 19.444 31 18.222 32.223Z" fill="black"/>
</svg>
