<svg width="65" height="64" viewBox="0 0 65 64" fill="none" xmlns="http://www.w3.org/2000/svg">
<path fill-rule="evenodd" clip-rule="evenodd" d="M0.5 32V64H32.5H64.5V32V0H32.5H0.5V32ZM34.237 7.25C36.008 9.505 36.424 14.592 35.054 17.233C33.923 19.413 33.95 20.021 35.231 21.302C36.769 22.841 36.108 25.494 34.442 24.464C33.937 24.152 33.783 24.573 34.1 25.401C34.565 26.612 35.098 26.425 36.839 24.436L39 21.967L42.25 23.969C46.155 26.374 46.229 26.966 43.01 29.99C40.545 32.306 40.499 32.31 38.26 30.414L36 28.5L37.926 30.774C39.397 32.509 39.576 33.324 38.683 34.217C37.79 35.11 36.801 34.704 34.502 32.502L31.491 29.617L28.108 32.895C24.788 36.113 22.575 35.852 23.9 32.4C24.249 31.491 24.057 31.156 23.415 31.553C22.334 32.221 17.5 28.345 17.5 26.811C17.5 26.349 18.944 25.092 20.709 24.019C23.75 22.17 24.023 22.157 25.942 23.784C27.861 25.411 27.895 25.409 26.61 23.75C25.715 22.594 25.636 22 26.378 22C26.995 22 27.5 21.27 27.5 20.378C27.5 19.065 27.78 18.988 28.966 19.972C29.773 20.641 31.01 20.957 31.716 20.673C32.546 20.34 32.401 20.13 31.307 20.079C27.419 19.898 24.703 10.197 27.7 7.2C29.267 5.633 32.99 5.662 34.237 7.25ZM25.372 28.75C24.129 30.336 24.164 30.371 25.75 29.128C27.416 27.821 27.945 27 27.122 27C26.915 27 26.127 27.788 25.372 28.75ZM46 41.779L50 42.627L45.988 43.287C42.958 43.786 42.5 44 42.5 44L32 54L27.035 49.038C23.516 45.565 20.5 44 20.5 44L14 42.373L20.5 41C20.5 41 23.235 39.823 26.977 36.023L31.931 30.994L42.5 40.5C42.5 40.5 43.205 41.186 46 41.779ZM27.211 37.786L22 42.5L27.287 47.29L32 52L36.288 47.716C38.605 45.356 41.5 42.5 41.5 42.5C41.5 42.5 38.571 39.523 36.212 37.208L31.925 33L27.211 37.786ZM33.5 41.5H36.5V44H33.5V47H30.5V44H27.5V41.5H30.5V38.5H33.5V41.5ZM25.5 52H22.497L24 49.5L25.5 52ZM42 52H39L40.5 49.5L42 52Z" fill="black"/>
</svg>
