<svg width="64" height="64" viewBox="0 0 64 64" fill="none" xmlns="http://www.w3.org/2000/svg">
<path fill-rule="evenodd" clip-rule="evenodd" d="M0 32V64H32H64V32V0H32H0V32ZM28.5 9.656C28.5 17.339 30.672 19.951 31.189 12.891C31.3965 10.0678 33.2705 6.861 33.2705 6.861C33.2705 6.861 34 8.58049 34 9.917C34 11.063 34.464 12 35.031 12C36.721 12 37.234 9.32 36.021 6.828L34.887 4.5L36.944 6.861C38.409 8.543 39 10.609 39 14.052C39 18.731 40.291 21.318 41.347 18.756C41.4447 18.5194 41.5 17.5 41.5 17.5C41.5 17.5 42.266 18.8203 42.555 19.773C43.203 21.907 43.328 21.938 44.591 20.273C45.1158 19.5814 45.5 18 45.5 18C45.5 18 46.0209 19.9342 46.113 21.5C46.68 31.104 46.478 32.52 44.25 34.615C41.975 36.753 41.158 38.638 43 37.5C43.5 37.5 44 36.5 44 36.5C44 36.5 44.5 37.5 44 38.286C44 41.721 34.76 46.471 30.242 45.359C25.059 44.082 19.649 39.665 20.453 37.365C20.671 36.74 20.182 35.277 19.367 34.113C18.551 32.949 17.683 31.514 18 31C19.367 33.0526 18.671 28.412 18.221 26.314C17.771 24.216 17.709 21.15 18.083 19.5C18.3457 18.3423 18.8587 16.5 18.8587 16.5C18.8587 16.5 18.8479 17.9685 18.882 18.559C18.947 19.691 19.667 21.491 20.482 22.559C21.862 24.365 21.927 24.256 21.419 21C21.119 19.075 20.695 16.6 20.477 15.5C20.3315 14.7668 20.8587 13.5 20.8587 13.5C20.8587 13.5 21.0587 14.7626 22.018 16L23.956 18.5L23.978 13.71C23.993 10.376 24.666 8.019 26.188 5.96C27.391 4.332 28.404 3 28.438 3C28.472 3 28.5 5.995 28.5 9.656ZM31.5 23.5C31.5 25 29.978 27.311 29.809 28.303C29.5999 29.5237 28.5 31 28.5 31C28.5 31 27.5701 28.9852 27.691 27.423C27.797 26.065 27 24.5 27 24.5C27 24.5 25.993 27.779 25.985 29.809C25.9776 31.5824 25.5 33.5 25.5 33.5C25.5 33.5 25.2317 32.4415 24.924 32C24.5978 31.532 24.284 30.777 24.284 30.777C24.284 30.777 24.2456 32.5047 24.519 34C24.872 35.925 26.074 38.288 27.191 39.25C29.334 41.097 33.607 41.536 35.816 40.135C37.778 38.891 40 34.126 40 31.163V28.555L38.443 30.777C37.2618 32.4644 36.5 34 36.5 34C36.5 34 35.2042 31.7319 35.487 30.25C35.6301 29.5 35.5 28 35.5 28C34 29 34 30.5 34 30.5C34 30.5 33 28.5769 33 27C32.5 25 31.5 23.5 31.5 23.5ZM16.124 42.514C14.2448 45.359 15 46 15 46C15 46 15 47 20.25 47.26L26.5 47.615L19.25 47.807C15.262 47.913 12 47.541 12 47.541L17.838 38.505C17.838 38.505 17.292 40.535 16.124 42.514ZM45.5 39.1407L51 47.48C51 47.48 47.962 47.915 44.25 47.811L37.5 47.622L43.25 47.261C46.413 47.063 47.5 46.6407 47.5 46.6407L48 45.6407L45.5 39.1407ZM35 49.6407L32 54.6407L29 49.6407C29 49.6407 30.35 49.6407 32 49.6407C33.65 49.6407 35 49.6407 35 49.6407Z" fill="black"/>
</svg>
