<svg width="65" height="65" viewBox="0 0 65 65" fill="none" xmlns="http://www.w3.org/2000/svg">
<path fill-rule="evenodd" clip-rule="evenodd" d="M0.5 32.2855V64.2855H32.5H64.5V32.2855V0.285538H32.5H0.5V32.2855ZM38.067 14.8235C36.785 16.7795 36.705 17.6415 37.663 19.1745C38.319 20.2255 39.9086 21.6439 39.9086 21.6439C39.9086 21.6439 42.831 22.0215 44.769 24.2865C46.707 26.5505 49.577 28.7715 51.146 29.2205C52.541 29.6206 53.2428 30.08 53.2428 30.08C53.2428 30.08 52.8383 30.4826 52 30.8025C50.9 31.2235 47.862 33.6245 45.25 36.1385C42.6006 38.6888 40.6605 39.727 40.6605 39.727C40.6605 39.727 41.384 37.9566 44.25 34.9945C47.156 31.9915 47.022 31.242 45.5 31.5L43.5 30.08L45.5 28.0625C46.749 27.8055 45.81 26.9945 43.064 24.3395C39.535 20.9265 39.5 20.9175 39.5 23.3665C39.5 24.7275 38.799 26.8405 37.943 28.0625C36.534 30.0745 36.534 30.4965 37.943 32.5085C39.922 35.3335 39.922 38.2375 37.943 41.0625C36.534 43.0745 36.534 43.4965 37.943 45.5085C38.799 46.7305 39.464 48.6425 39.421 49.7585C39.378 50.8735 39.115 51.2235 38.838 50.5355C38.502 49.7045 36.014 49.2855 31.417 49.2855C24.149 49.2855 22.753 48.1755 25.972 44.9565C27.268 43.6605 27.268 43.3385 25.972 42.2625C25.162 41.5905 24.499 40.3085 24.498 39.4135C24.496 38.0325 25.56 37.8355 31.498 38.1175C37.495 38.4015 38.5 38.2105 38.5 36.7855C38.5 35.3595 37.492 35.1685 31.446 35.4535C24.774 35.7675 24.428 35.6775 25.043 33.7855C25.867 31.2545 25.867 29.3165 25.043 26.7855C24.428 24.8935 24.774 24.8035 31.446 25.1175C37.492 25.4025 38.5 25.2115 38.5 23.7855C38.5 22.3605 37.495 22.1695 31.498 22.4535C24.032 22.8075 22.778 21.8455 26.025 18.2575C27.392 16.7475 27.392 16.4405 26.025 15.3065C25.186 14.6105 24.499 13.3085 24.498 12.4135C24.496 11.0325 25.56 10.8355 31.498 11.1175C36.788 11.3685 38.412 11.5905 38.5 10.5845L39 12.5C39.257 13.49 38.946 13.4815 38.067 14.8235ZM26.5 13.2855C26.5 13.8355 26.615 14.2855 26.757 14.2855C26.898 14.2855 28.465 14.7015 30.238 15.2105C32.845 15.9575 33.899 15.7725 35.732 14.2435L38 12.3525L32.25 12.3185C29.061 12.3005 26.5 12.7305 26.5 13.2855ZM27.941 19.7535C26.165 21.0975 26.51 21.2215 32 21.2215C37.49 21.2215 37.835 21.0975 36.059 19.7535C33.583 17.8815 30.417 17.8815 27.941 19.7535ZM20.416 24.0335C17.644 27.1915 16.53 27.7795 18 28.0625L20 30L18 31.5C15.729 31.193 15.872 31.064 20 35.5C21.8326 37.5333 22.6536 38.6967 23.999 40.7855C21.7903 39.4415 20.5905 38.5323 18.548 36.5C15.799 33.965 13.1 31.1995 12 30.7505C11.0323 30.3553 10.5331 30 10.5331 30C10.5331 30 11.0409 29.7483 12.089 29.5615C13.239 29.3565 16.145 27.1855 18.548 24.7365C21.3163 21.9158 23.1992 20.4236 23.1992 20.4236C23.1992 20.4236 22.5709 21.5795 20.416 24.0335ZM26.932 27.1745C28.034 28.9595 32.548 29.3245 35.267 27.8485C37.951 26.3925 37.895 26.3645 32.191 26.3255C28.996 26.3035 26.629 26.6855 26.932 27.1745ZM27.941 32.7535C26.165 34.0975 26.51 34.2215 32 34.2215C37.49 34.2215 37.835 34.0975 36.059 32.7535C33.583 30.8815 30.417 30.8815 27.941 32.7535ZM27 40.2855C27.34 40.8355 29.59 41.2855 32 41.2855C34.41 41.2855 36.66 40.8355 37 40.2855C37.384 39.6645 35.491 39.2855 32 39.2855C28.509 39.2855 26.616 39.6645 27 40.2855ZM27.437 46.1905L25 48.2185L31.464 48.2525C37.092 48.2815 37.739 48.0995 36.464 46.8515C33.817 44.2585 30.086 43.9855 27.437 46.1905Z" fill="black"/>
</svg>
