<svg width="64" height="65" viewBox="0 0 64 65" fill="none" xmlns="http://www.w3.org/2000/svg">
<path fill-rule="evenodd" clip-rule="evenodd" d="M0 32.5V64.5H32H64V32.5V0.5H32H0V32.5ZM46 8.559C46 10.241 45.1688 11 45.1688 11C44.3638 10.502 45.617 5.5 45.617 5.5C45.617 5.5 46 6.877 46 8.559ZM43.1688 13.5C43.1688 13.5 42.2935 14 39.2935 14C37.3925 14.218 36.25 16.345 40.639 16.75C40.715 17.712 40.409 18.5 39.959 18.5C39.508 18.5 39.547 19.921 40.045 21.658C40.772 24.19 40.609 25.075 39.225 26.126C38.276 26.847 37.087 27.451 36.583 27.468C36.079 27.486 35.928 27.761 36.248 28.081C36.567 28.401 37.767 28.16 38.914 27.546C40.718 26.581 41 26.711 41 28.51C41 30.911 36.799 35.5 34.602 35.5C33.783 35.5 32.413 34.5 31.557 33.277C30.701 32.055 30 31.515 30 32.077C30 32.64 30.54 33.64 31.2 34.3C33.645 36.745 29.201 35.54 26.077 32.911C22.41 29.826 22.008 27.496 25.25 28.122L27.5 28.556L25.25 27.56C22.222 26.22 22.391 22.969 25.646 19.952C28.577 17.236 29.96 16.861 30.079 18.75C30.142 19.75 30.259 19.75 30.662 18.75C30.94 18.063 31.804 17.5 32.583 17.5C33.362 17.5 34 16.98 34 16.345C34 15.686 34.966 15.997 36.25 17.068C37.487 18.102 37.938 18.306 37.25 17.523C35.757 15.823 35.588 14.127 36.998 14.999C37.547 15.338 37.0695 13.857 38.2935 13C42.2935 13 43.1688 13.5 43.1688 13.5ZM50.1688 13.5C50.6811 13.8309 52.6688 14.2111 52.6688 14.2111C52.6688 14.2111 51.3726 14.4933 50.1688 14.5C48.6558 14.508 47.5 13.5 47.5 13.5H50.1688ZM45.6688 19C45.6688 20.375 45.617 21.5 45.617 21.5C45.617 21.5 45.4318 20.375 45.1688 19C44.9058 17.625 44.665 16.5 45.139 16.5C45.612 16.5 45.6688 17.625 45.6688 19ZM29.175 25.077L29 30.154L32.25 29.601C35.372 29.07 35.394 29.035 32.805 28.713C30.434 28.418 30.063 27.873 29.729 24.189C29.36 20.118 29.344 20.143 29.175 25.077ZM21 27.5C21 27.5 20.1 28.5 19 28.5C16.702 28.5 16.609 28.824 18.056 31.816C18.6339 33.0107 18.5602 33.277 18.5602 33.277C18.5602 33.277 17.8661 32.5688 17.056 31.639C14.108 28.254 14.43 26.5 18 26.5C19.65 26.5 21 27.56 21 27.5ZM48.968 27.75C48.951 28.438 48.276 29.874 47.468 30.941L45.5923 33.7L48.8552 34.688L43.5 40L46.5 44H36.4238C36.4238 44 36.7642 43.4733 37.441 42.963C38.509 42.158 39.002 41.5 38.536 41.5C38.071 41.5 38.505 40.6 39.5 39.5C41.788 36.972 40.946 36.977 35.96 39.52L32 41.541L28.04 39.52C23.054 36.977 22.212 36.972 24.5 39.5C25.495 40.6 25.929 41.5 25.464 41.5C24.998 41.5 25.434 42.097 26.431 42.826C26.9268 43.1883 27.2115 43.6432 27.2115 43.6432C27.2115 43.6432 25.8315 44.1213 22.264 44.076L16.284 44L20 39.52L14.5 34.226L17.327 34.739C19.894 35.205 20.1 35.033 19.558 32.876C18.754 29.673 19.77 29.884 23.758 33.75C26.612 36.516 27.839 37 32 37C36.176 37 37.385 36.519 40.294 33.7C42.167 31.885 44.273 30.535 44.974 30.7C45.676 30.865 46.456 30.438 46.708 29.75C46.982 29.003 46.328 28.5 45.083 28.5C43.938 28.5 43 27.5 43 27.5C43 27.5 44.35 26.5 46 26.5C47.75 26.5 48.987 27.021 48.968 27.75ZM44.079 34.083C44.127 35.248 44.364 35.485 44.683 34.688C44.972 33.966 44.936 33.103 44.604 32.771C44.272 32.439 44.036 33.029 44.079 34.083ZM36 49.868L28 50.034L32 43.5L36 49.868Z" fill="black"/>
</svg>
