<svg width="64" height="65" viewBox="0 0 64 65" fill="none" xmlns="http://www.w3.org/2000/svg">
<path fill-rule="evenodd" clip-rule="evenodd" d="M0 32.5V64.5H32H64V32.5V0.5H32H0V32.5ZM40.994 24.61C45.505 32.92 50.071 41.2 51.139 43.01L53.08 46.302L48.04 46.651C45.267 46.843 43 46 43 46C43 46 44.77 45.477 46.933 45.307L50.867 45L42.637 30C38.112 21.75 32.473 11.5 32.473 11.5C32.473 11.5 30.726 14.692 23.258 28.277L14.065 45L18.033 45.307C20.215 45.477 22 46 22 46L15.224 46.577L11.948 46.5L16.05 39.027C19.924 31.969 19.5 30.428 19.5 30.428L16.5 25.5L22 25C21.43 26.064 19.5 30.428 19.5 30.428C19.765 30.428 23.426 25.775 26.523 20C29.621 14.225 32.298 9.5 32.473 9.5C32.648 9.5 36.482 16.299 40.994 24.61ZM33.851 25.566C35.583 28.353 37 31.278 37 32.066C37 32.855 37.649 33.5 38.443 33.5C39.237 33.5 40.587 34.5 41.443 35.723C45.825 41.979 40.295 50.5 31.853 50.5C27.659 50.5 22 44.858 22 40.677V37.653L25.082 39.191C28.681 40.986 39.294 40.613 41.265 38.622C42.251 37.626 41.933 37.588 39.685 38.437C35.524 40.008 27.784 39.738 25.206 37.932C22.511 36.044 23.124 34.764 27.622 32.885C29.48 32.108 31 31.003 31 30.428C31 29.852 31.337 29.59 31.75 29.845C32.163 30.1 32.566 29.21 32.646 27.868C32.753 26.097 32.469 25.696 31.613 26.406C30.921 26.981 29.85 27.025 29.023 26.514C27.888 25.813 27.842 25.142 28.785 23.072C29.43 21.657 30.125 20.5 30.329 20.5C30.534 20.5 32.118 22.78 33.851 25.566ZM48 25.5L45.5 30L42.999 25L48 25.5ZM27.442 34.919C25.568 36.289 25.589 36.359 28.081 36.984C31.762 37.908 39.601 37.201 39 36C38.725 35.45 36.813 35.143 34.75 35.317C32.56 35.503 31 35.191 31 34.567C31 33.106 29.753 33.229 27.442 34.919Z" fill="black"/>
</svg>
