<svg width="65" height="65" viewBox="0 0 65 65" fill="none" xmlns="http://www.w3.org/2000/svg">
<path fill-rule="evenodd" clip-rule="evenodd" d="M0.5 32.1899V64.1899H32.5H64.5V32.1899V0.18988H32.5H0.5V32.1899ZM31.052 14.1899C31.988 14.1899 32.5 13.1489 32.5 11.2489C32.5 9.63088 33 6.5 33 6.5C33 6.5 34.5 7.77388 34.5 8.63088C34.5 9.48788 35.002 10.1899 35.617 10.1899C36.273 10.1899 36.533 9.14388 36.248 7.65388C36.0802 6.77565 35.5 5.5 35.5 5.5C35.5 5.5 36.4977 5.78275 37.662 6.83588C38.993 8.04088 39.493 9.68488 39.336 12.3449C39.213 14.4299 39.424 16.4479 39.806 16.8289C40.188 17.2109 40.5 16.9979 40.5 16.3569C41 16.3569 41.5 13.7139 41.5 13.7139C41.5 13.7139 42 15.6899 42.532 16.9399C42.56 18.5039 42.729 18.4779 44.127 16.6899C44.6536 16.0158 45.257 14.4309 45.257 14.4309C45.257 14.4309 45.5203 16.2541 45.257 18.6899C45.019 20.8899 44.476 23.4829 44.05 24.4509C43.451 25.8179 43.641 26.0729 44.9 25.5899C45.5737 25.3313 46.1027 24.6899 46.1027 24.6899C46.1027 24.6899 45.1443 27.887 43.064 29.4059C40.724 31.1149 40.697 31.0959 36.706 25.0229L32.697 18.9229L28.957 24.5569C26.9 27.6549 24.88 30.1899 24.469 30.1899C24.058 30.1899 22.659 29.3049 21.361 28.2229C19.309 26.5139 19.5 24 19.5 24C20.5 26 22.473 25.7399 21.826 23.9399C20.721 20.8669 22.163 12.337 23.5 11C23.5 11 23.5 12.5199 23.5 14.4309C23.5 15.8839 23.95 17.3499 24.5 17.6899C25.111 18.0679 25.5 16.5219 25.5 13.7139C25.5 11.0279 26.227 8.00388 27.25 6.43488L29 3.74988L29.302 8.96988C29.519 12.7199 30.012 14.1899 31.052 14.1899ZM34.7072 28.1899L26.6027 41.0169H32.5H38.414L33.6027 33.6899L35.1027 31.1899L43.5 43.6649C43.5 43.6649 38.55 43.6649 32.5 43.6649C26.45 43.6649 21.6027 43.6649 21.6027 43.6649L32.6027 26.6899L34.7072 28.1899ZM22 32.6899C22 32.6899 20.866 35.0189 17.964 39.6899L13 48.6899L21 49.6899L10.309 50.1899L13.54 44.4399C15.316 41.2769 18.12 36.7389 18.12 36.7389L19.5 34.1899L14.5 29.6899L22 32.6899ZM45.21 33.8439L49.498 41.2669C51.857 45.3499 54.2072 49.6899 54.2072 49.6899H45.2072L51.7072 48.1899C51.7072 48.1899 49.646 44.1799 47.381 40.4579C45.116 36.7349 42.2072 32.1899 42.2072 32.1899L48.2072 30.1899L45.21 33.8439ZM34.4026 49.6899L32.5 52.6899L30.4026 49.6899H34.4026Z" fill="black"/>
</svg>
