<svg width="65" height="65" viewBox="0 0 65 65" fill="none" xmlns="http://www.w3.org/2000/svg">
<path fill-rule="evenodd" clip-rule="evenodd" d="M0.5 32.6098V64.6098H32.5H64.5V32.6098V0.609756H32.5H0.5V32.6098ZM35.433 15.1098L32.5 12.6098C32.5 12.6098 32.875 11.5368 24.156 26.6098C19.083 35.3788 18.77 36.2798 20.08 38.3248L21.2438 41.2103L15.5 41.6098C13.559 41.6098 15.201 42.2998 14.5 43.6098C13.447 45.5768 13.74 45.6098 32.465 45.6098C42.934 45.6098 51.5 45.4218 51.5 45.1918C51.5 42.8988 49.842 41.6098 46.893 41.6098H43.5L46.139 35.5L43.9 31.2108C42.454 28.6228 41.816 25.9608 41.816 25.9608C41.816 25.9608 43.318 27.2928 44.488 29.5868C46.196 32.9338 46.889 33.5318 47.998 32.6118C48.758 31.9808 50 29 50 29L57.537 41.6098H54.483C51.774 41.6098 51.546 41.8278 52.465 43.5438C53.034 44.6078 53.5 47 53.5 47C53.5 47 44.015 47 32.465 47C17.5014 47 11.5 47 11.5 47C11.5 47 11.7785 44.5557 12.5 44.1098C14.475 42.8898 13.444 41.6098 10.486 41.6098H7.472L15 28.5C15 28.5 17.35 33.4888 18 34.4178C18 34.4178 17.892 35.0598 28.491 16.7068L32.5 10.6098C33.232 11.9318 35.433 15.1098 35.433 15.1098ZM41.396 19.1488C42.589 20.2808 42.533 21.0208 41.012 24.2258C39.535 27.3388 39.428 28.5218 40.387 31.1738C41.725 34.8748 40.642 38.7488 37.259 42.3598C34.565 45.2358 30.711 45.2248 26.398 42.3278C23.689 40.5078 22.936 39.2758 22.685 36.2508C22.278 31.3428 24.504 27.9918 29.501 25.9928C31.698 25.1138 33.762 23.4738 34.192 22.2668C34.898 20.2818 35.056 19.6228 35.385 17.2928C35.537 16.2098 39.63 17.4738 41.396 19.1488ZM36.583 18.9748C36.813 19.1748 38.125 19.9238 39.5 20.6378C41.787 21.8268 41.883 21.7958 40.628 20.2738C39.873 19.3588 38.56 18.6098 37.711 18.6098C36.862 18.6098 36.354 18.7738 36.583 18.9748ZM35.047 23.5188C33.933 25.6728 32.441 26.8718 30.354 27.2888C26.557 28.0488 23.312 32.8948 24.139 36.5688C25.526 42.7288 33.628 44.8058 37.427 39.9748C39.687 37.1028 40.036 34.4798 38.533 31.6718C37.913 30.5128 37.911 28.6638 38.527 26.5168C39.257 23.9698 39.151 22.8318 38.083 21.7648C36.879 20.5598 36.449 20.8088 35.047 23.5188ZM11.961 35.3598C10.911 37.4228 9.89 39.4468 9.693 39.8598C9.495 40.2728 10.47 40.6098 11.86 40.6098C15.392 40.6098 17.7 37.1428 16.265 33.9938C14.8 30.7788 14.196 30.9708 11.961 35.3598ZM38.327 34.4178C38.867 38.2288 35.955 41.6098 32.132 41.6098C27.593 41.6098 23.704 36.8468 25.155 33.0658C25.619 31.8578 27.083 31.5848 31.874 31.8158C37.408 32.0818 38.032 32.3328 38.327 34.4178ZM48.934 34.0168C48.068 37.4648 50.064 40.6098 53.119 40.6098C54.52 40.6098 55.505 40.2728 55.307 39.8598C51.086 31.0518 49.942 30.0018 48.934 34.0168ZM17.139 38.3038C16.013 39.4298 16.454 40.6098 18 40.6098C18.825 40.6098 19.5 40.1868 19.5 39.6688C19.5 38.4078 17.938 37.5048 17.139 38.3038ZM46.139 38.3038C45.013 39.4298 45.454 40.6098 47 40.6098C47.825 40.6098 48.5 40.1868 48.5 39.6688C48.5 38.4078 46.938 37.5048 46.139 38.3038ZM29 53.6098L32.5 48.1098L36 53.6098H29Z" fill="black"/>
</svg>
