<svg width="64" height="65" viewBox="0 0 64 65" fill="none" xmlns="http://www.w3.org/2000/svg">
<path fill-rule="evenodd" clip-rule="evenodd" d="M0 32.5V64.5H32H64V32.5V0.5H32H0V32.5ZM32 10C31 11 29.568 11.227 28.473 9.456C27.675 8.165 29 7.5 30.5 6C31 7 32.5 8.5 32 10ZM36.978 15.128C37.013 16.923 34.404 18.592 32.627 17.91C30.694 17.168 30.574 15.53 32.193 11.977L33.385 9.359L35.17 11.68C36.152 12.956 36.966 14.507 36.978 15.128ZM35.764 20.75C36.32 21.438 37.074 23.821 37.441 26.047C37.979 29.315 37.698 30.615 35.981 32.797C34.812 34.284 32.875 35.552 31.677 35.616C29.915 35.71 29.842 35.821 31.298 36.199C32.287 36.455 33.679 36.182 34.391 35.59C35.372 34.776 35.969 35.136 36.851 37.072C37.491 38.477 37.593 39.366 37.077 39.047C36.561 38.728 35.844 38.943 35.484 39.525C34.741 40.729 26.146 40.546 25.383 39.31C25.107 38.865 25.359 38.5 25.941 38.5C26.523 38.5 27 37.825 27 37C27 36.175 27.423 35.5 27.941 35.5C28.458 35.5 28.236 34.263 27.447 32.75C25.384 28.795 25.557 21.858 27.75 20.58C30.187 19.161 34.556 19.253 35.764 20.75ZM53 24.04C53 24.338 52.008 25.922 50.797 27.561C48.655 30.458 48.643 30.625 50.353 33.521C51.3765 35.2535 51.1611 36.4237 51.1611 36.4237C51.1611 36.4237 49.8451 35.9865 48.551 34.557C47.584 33.488 45.377 32.272 43.646 31.856L40.5 31.098L43.913 30.549C46.496 30.134 47.713 29.214 48.913 26.773C50.245 24.064 53 22.222 53 24.04ZM27.5 28.5C27.5 28.716 28.5 29.5 29.5 29.485C31.5 29.5 30.5 29 29 28C28.0697 27.3798 27.5 27 27.5 28.5ZM34 28.5C32.4148 29.5249 32.975 29.475 33.691 29.485C34.346 29.493 35.16 29.05 35.5 28.5C36.267 27.258 35.921 27.258 34 28.5ZM46.5 35.583C46.5 36.362 45.487 37.144 44.25 37.32C41.773 37.671 41.336 36.564 43.212 34.688C44.709 33.191 46.5 33.679 46.5 35.583ZM25.537 40.541C27.349 42.543 27.317 42.649 23.854 46.113L20.324 49.643L17.211 47.024C13.699 44.069 13.876 42.179 17.869 40.01C21.51 38.031 23.383 38.161 25.537 40.541ZM47.476 41.567C49.443 43.499 49.438 43.524 46.44 46.522L43.426 49.535L40.038 46.04C36.695 42.591 36.675 42.516 38.531 40.465C40.728 38.038 44.336 38.483 47.476 41.567ZM36.574 41.167C36.167 42.229 37.066 44.244 39.051 46.713C43.449 52.186 42.099 53.5 32.078 53.5C24.985 53.5 22 52.562 22 50.335C22 49.914 23.385 47.992 25.077 46.065C26.77 44.137 27.933 42.2 27.662 41.761C27.39 41.322 28.878 41.126 30.967 41.325C33.056 41.525 35.07 41.196 35.442 40.594C36.49 38.899 37.289 39.304 36.574 41.167Z" fill="black"/>
</svg>
