<svg width="64" height="65" viewBox="0 0 64 65" fill="none" xmlns="http://www.w3.org/2000/svg">
<path fill-rule="evenodd" clip-rule="evenodd" d="M0 32.5V64.5H32H64V32.5V0.5H32H0V32.5ZM46 8.5C46 10.15 45.55 11.5 45 11.5C45 8.23532 44.5 7.23532 45.458 6.23532L46 8.5ZM42.5 13.432L41.6275 13.915C39.3245 14.18 40.406 15.587 39.942 18.5C39.635 20.425 39.749 22.761 40.195 23.691C41.103 25.581 37.85 28.5 34.837 28.5C33.891 28.5 32.858 28.921 32.54 29.436C31.777 30.669 37.73 28.969 39.597 27.42C40.729 26.48 41 26.68 41 28.454C41 30.672 36.026 36.5 34.134 36.5C32.71 36.5 30 32.42 30 30.277C30 29.192 29.253 28.5 28.082 28.5C21.165 28.5 21.183 22.148 28.11 18.441C29.875 17.497 30.012 17.667 29.526 20.198L28.988 23L30.077 20.25C30.676 18.738 31.804 17.5 32.583 17.5C33.362 17.5 34.036 16.938 34.079 16.25C34.2078 14.189 34.1797 14.189 34.666 16.261C34.946 16.955 36.148 17.993 37.337 18.567C39.305 19.516 39.342 19.483 37.75 18.195C35.919 16.714 35.264 13.927 36.998 14.999C37.547 15.338 39.3681 14.289 40.5921 13.432C43.5921 12.932 42.5 13.432 42.5 13.432ZM23.5 14.5C18.413 14.682 14 14.831 14 15.144C14 15.458 18.104 23.344 23.12 32.669L32.24 49.625L39.806 35.582C43.967 27.858 47.772 21.939 47.772 21.939C47.772 21.8197 44.585 28.939 40.199 37.004L32.224 51.668L23.483 35.334C18.675 26.35 14.125 18.003 13.371 16.785C12.617 15.567 12 14.035 12 14.035C12 14.035 16.862 13.92 22.5 14.035H32.54L23.5 14.5ZM52.1465 13.915C51.1845 14.167 47.462 14.252 46.5 14C46.5 14 47.075 13.5 49 13.5C50.925 13.5 52.1465 13.915 52.1465 13.915ZM45.5 18.2353C45.5 19.6863 45 21 45 21C45 21 44.5 19.3033 44.5 18.2353C44.5 17.1673 44.45 15.5 45 15.5C45.55 15.5 45.5 16.8283 45.5 18.2353ZM27.465 29.5C28.181 29.5 28.993 30.288 29.27 31.25C29.547 32.212 30.097 33.788 30.494 34.75C31.533 37.275 29.649 36.917 26.077 33.911C22.807 31.16 21.816 27.832 24.582 28.893C25.452 29.227 26.749 29.5 27.465 29.5ZM52.662 37.171L44 34.5L45.13 32.257C46.137 30.376 46 30.277 46 30.277L52.662 37.171ZM18.5 31.5L21 35.852L12 39L18.5 31.5Z" fill="black"/>
</svg>
