<svg width="64" height="64" viewBox="0 0 64 64" fill="none" xmlns="http://www.w3.org/2000/svg">
<path fill-rule="evenodd" clip-rule="evenodd" d="M0 32V64H32H64V32V0H32H0V32ZM27.801 11.527C30.441 16.961 30.492 17.799 28.325 20.193C26.763 21.919 26.762 22.278 28.309 25.522C29.2689 27.5349 29.186 28.8162 29.186 28.8162C29.186 28.8162 27.4188 27.9953 25.204 25.711C22.188 22.599 22.101 22.301 23.586 20.181C25.05 18.091 24.974 17.631 22.464 13.349C20.295 9.646 20.038 8.591 21.137 7.894C23.897 6.146 25.651 7.102 27.801 11.527ZM21.603 8.833C21.32 9.291 22.266 11.399 23.706 13.518C26.186 17.167 26.241 17.514 24.757 20.1C23.266 22.698 23.311 22.943 25.683 25.165L28.176 27.5L26.93 24.754C25.874 22.429 25.937 21.728 27.341 20.175C29.477 17.816 29.431 16.764 26.98 11.96C25.09 8.255 22.788 6.916 21.603 8.833ZM43.171 18.655C45.34 20.617 45.594 26.337 43.677 30.011C42.539 32.192 42.605 32.774 44.181 34.434C45.856 36.198 45.871 36.485 44.383 38.129C42.881 39.789 43.019 40.204 46.371 44.12C51.301 49.88 50.196 51 39.578 51C31.995 51 29 50.104 29 47.835C29 47.414 30.408 45.466 32.129 43.506C35.155 40.059 35.199 39.878 33.474 37.971C32.454 36.844 32.184 36 32.845 36C33.48 36 34 35.325 34 34.5C34 33.675 34.423 33 34.941 33C35.458 33 35.236 31.762 34.447 30.25C32.522 26.56 32.622 21.075 34.655 18.829C36.716 16.552 40.756 16.469 43.171 18.655ZM17.447 21.413C20.4 22.647 21 23.405 21 25.904C21 28.549 21.421 28.988 24.511 29.568C27.326 30.0962 28.4113 31.1894 28.4113 31.1894C28.4113 31.1894 26.6254 32 23.684 32C18.48 32 18.225 31.877 17.666 29.081C17.147 26.484 16.471 26.025 11.541 24.922C5.984 23.678 4.921 22.493 7.25 20.134C8.641 18.724 12.029 19.15 17.447 21.413ZM7.661 21.44C7.251 22.509 8.503 23.193 12.507 24.089C17.226 25.145 17.985 25.657 18.533 28.149C19.036 30.439 19.684 30.988 21.829 30.937C24.424 30.875 24.436 30.847 22.25 29.969C20.632 29.319 20 28.239 20 26.126C20 23.521 19.47 23.007 15.322 21.594C9.558 19.63 8.365 19.606 7.661 21.44ZM32.471 37.968C34.191 39.869 34.153 40.056 31.376 43.396C29.794 45.299 28.022 46.888 27.437 46.928C26.852 46.968 25.196 45.763 23.755 44.25C20.926 41.279 21.344 39.592 25.5 37.208C28.43 35.528 30.463 35.75 32.471 37.968ZM51.603 37.039C53.107 37.611 54.906 38.848 55.6 39.789C56.669 41.236 56.46 41.924 54.245 44.25C52.804 45.763 51.148 46.968 50.563 46.928C49.978 46.888 48.206 45.299 46.624 43.396C43.847 40.056 43.809 39.869 45.529 37.968C47.587 35.694 47.928 35.642 51.603 37.039Z" fill="black"/>
</svg>
