<svg width="64" height="64" viewBox="0 0 64 64" fill="none" xmlns="http://www.w3.org/2000/svg">
<path fill-rule="evenodd" clip-rule="evenodd" d="M0 32V64H32H64V32V0H32H0V32ZM39 8.46C39 9.172 38.338 10.305 37.528 10.977C36.232 12.053 36.232 12.375 37.528 13.671C40.693 16.836 39.341 18 32.5 18C28.505 18 25.091 18.4202 25.091 19.0852C25.091 19.7882 28.406 20.048 32.875 19.832C39.952 19.49 40.61 20.008 37.775 23.686C37.214 24.414 37.274 25.643 37.931 26.87C38.519 27.969 39 29.123 39 29.434C39 29.745 36.075 30 32.5 30C27.239 30 25.0758 30.4014 25.0758 31.6814C25.0758 33.0034 27.132 33.109 32.875 32.832C39.952 32.49 40.61 33.008 37.775 36.686C37.214 37.414 37.274 38.643 37.931 39.87C38.519 40.969 39 42.352 39 42.352C39 42.352 35.844 42.985 31.986 43.168C26.89 43.409 25.097 43.177 25.429 42.318C25.68 41.667 22.951 35.875 19.364 29.446C15.778 23.016 12 15 12 15C12 15 13.116 15 17.893 15C27.5 16 24.5 15.5 19.082 17.198L14.164 17.5L20.207 28.825C24.197 36.301 26.587 39.813 27.241 39.159C27.895 38.505 27.682 37.385 26.616 35.862C24.61 32.998 24.557 30.078 26.461 27.36C27.728 25.55 27.732 25.025 26.492 23.387C24.654 20.959 24.615 16.909 26.406 14.46C27.614 12.808 27.614 12.154 26.406 9.818C25.633 8.323 24.998 6.8 24.998 6.8C24.998 6.8 28.147 6.649 31.998 6.832C36.893 7.064 39 7.554 39 8.46ZM28 9.5C28.685 10.325 30.71 11 32.5 11C34.29 11 36.315 10.325 37 9.5C38.082 8.196 37.493 8 32.5 8C27.507 8 26.918 8.196 28 9.5ZM28.992 14.51C27.925 15.795 28.418 16 32.578 16C37.537 16 37.686 14.772 32.864 13.639C31.126 13.23 29.808 13.527 28.992 14.51ZM52 16.065C52 17.407 40.48 37.5 40.48 37.5C40.48 37.5 41.373 34.728 44.434 28.895C47.495 23.062 50 18 50 17.645C50 17.29 47.975 17 45.5 17C43.025 17 41 16 41 16C41 16 43.475 15 46.5 15C49.724 15 52 15.441 52 16.065ZM28.441 22.532C29.509 23.339 31.335 24 32.5 24C33.665 24 35.491 23.339 36.559 22.532C38.335 21.188 37.99 21.064 32.5 21.064C27.01 21.064 26.665 21.188 28.441 22.532ZM28.559 27.532C26.777 28.88 27.063 28.997 32.059 28.968C37.061 28.939 37.343 28.818 35.559 27.468C33.128 25.63 31.049 25.648 28.559 27.532ZM47 31.5L52.5 38.5L44 35.5L47 31.5ZM22 38.5L10.5 40.941L19.5 33.5L22 38.5ZM28.441 35.532C29.509 36.339 31.335 37 32.5 37C33.665 37 35.491 36.339 36.559 35.532C38.335 34.188 37.99 34.064 32.5 34.064C27.01 34.064 26.665 34.188 28.441 35.532ZM29 40C27.91 40.704 28.73 40.969 32 40.969C35.27 40.969 36.09 40.704 35 40C34.175 39.467 32.825 39.031 32 39.031C31.175 39.031 29.825 39.467 29 40ZM30.75 48.074L32.389 50.5656L33.969 48.074C35.5 45 36.088 45 36.088 45L32.389 52.847C32.389 52.847 31.65 51.253 30.5 49C28 44 27.98 43.699 30.75 48.074Z" fill="black"/>
</svg>
