<svg width="64" height="64" viewBox="0 0 64 64" fill="none" xmlns="http://www.w3.org/2000/svg">
<path fill-rule="evenodd" clip-rule="evenodd" d="M0 32V64H32H64V32V0H32H0V32ZM36 7L33 11.5L30 7H36ZM54 14C48.693 23.594 40.287 36.62 40.287 36.62C40.287 36.62 42.536 31.501 45.864 25.823L51.916 15.5L33.314 15.227C23.083 15.077 14.498 15.169 14.236 15.43C13.975 15.692 16.555 20.686 19.971 26.529C23.386 32.372 25.679 37.654 25.679 37.654C25.679 37.654 23.28 34.857 20.959 30.827C18.639 26.797 15.453 21.363 13.879 18.75L11.018 14H32.965C44.818 14 54 14 54 14ZM38.138 17.022C41.892 18.064 43.474 20.643 41.893 23.139C41.419 23.888 41.024 25.557 41.015 26.849C41.007 28.165 39.655 30.454 37.942 32.055L34.883 34.912L37.445 37.139C40.91 40.152 42.508 45.921 40.447 47.981C38.372 50.057 27.617 50.071 25.638 48C23.641 45.91 24.671 40.518 27.597 37.745C30.027 35.441 30.761 33 29.023 33C27.602 33 25.335 28.998 24.654 25.287C24.086 22.19 24.156 22.109 26.598 23.037C27.99 23.567 31.238 23.938 33.815 23.863C38.232 23.734 38.139 23.685 32.197 23.011C25.676 22.27 23.255 21.015 24.489 19.017C26.219 16.218 32.132 15.354 38.138 17.022ZM40 22C39.099 22.582 38.975 22.975 39.691 22.985C40.346 22.993 41.16 22.55 41.5 22C42.267 20.758 41.921 20.758 40 22ZM26 27.076C26 27.942 27.125 29.708 28.5 31C31.546 33.862 31.705 36.553 28.914 38.046C26.347 39.42 26.822 40.121 29.794 39.344C32.227 38.707 32.766 35.299 30.965 31.934C30.043 30.212 30.275 30 33.087 30C35.927 30 36.107 30.17 34.872 31.692C33.689 33.15 33.707 33.267 35 32.54C37.973 30.867 40 28.66 40 27.095C40 25.787 38.741 25.5 33 25.5C27.295 25.5 26 25.792 26 27.076ZM22 35L15 47L7.883 35H15H22ZM58 35L51 47.5L44 35C44 35 47.176 35 51.059 35H58ZM10 36C12.303 40.806 15 45 15 45L20 36H15H10ZM46 36L51 45.5C51 45.5 53.697 40.806 56 36H51H46ZM34.008 37.715C34.012 38.147 35.138 39.02 36.509 39.656C37.88 40.293 38.752 40.407 38.446 39.912C37.63 38.593 33.999 36.795 34.008 37.715ZM38 46C37.175 46.533 36.95 46.969 37.5 46.969C38.05 46.969 39.175 46.533 40 46C40.825 45.467 41.05 45.031 40.5 45.031C39.95 45.031 38.825 45.467 38 46Z" fill="black"/>
</svg>
