<svg width="64" height="64" viewBox="0 0 64 64" fill="none" xmlns="http://www.w3.org/2000/svg">
<path fill-rule="evenodd" clip-rule="evenodd" d="M0 32V64H32H64V32V0H32H0V32ZM33.74 5.25C35.448 7.419 36.041 11.763 35.001 14.496C34.317 16.296 34.339 17.764 35.069 19.129C35.853 20.593 35.811 21.523 34.912 22.606C33.948 23.768 33.946 24.344 34.902 25.292C35.854 26.237 36.003 26.174 35.587 25C35.295 24.175 35.679 22.681 36.44 21.679C37.725 19.989 38.042 19.971 40.849 21.422C45.218 23.681 45.566 24.888 42.681 27.774C40.399 30.055 39.914 30.182 38.307 28.92C36.647 27.616 36.615 27.646 37.908 29.292C38.969 30.644 39.032 31.368 38.164 32.236C37.296 33.104 36.274 32.679 34.007 30.506L31 27.626L27.993 30.506C25.674 32.729 24.716 33.116 23.8 32.2C22.885 31.285 23.132 30.269 24.88 27.757L27.146 24.5L24.494 27.398L21.841 30.296L19.171 27.591L16.5 24.886L19.306 22.443C20.849 21.099 23.211 20 24.556 20C26.144 20 27 19.432 27 18.378C27 17.065 27.28 16.988 28.466 17.972C29.273 18.641 30.51 18.957 31.216 18.673C32.046 18.34 31.901 18.13 30.807 18.079C26.919 17.898 24.203 8.197 27.2 5.2C28.767 3.633 32.489 3.662 33.74 5.25ZM45.5 39.559L49.5 40L41.8599 41L31.5 51.5C31.5 51.5 28.231 48.773 25.55 46.051C21.842 42.286 19.816 41.016 17.088 40.747L13.5 40L17.647 39.584C20.704 38.989 23.061 37.491 26.613 33.886L31.5 29.292L36.465 33.882C40.011 37.325 42.683 39.004 45.5 39.559ZM31.5 31L22 40L26.882 45.383L31.5 49.5L40 40L31.5 31ZM36 38.5V41.5H33V44.5H30V41.5H27V38.5H30V35.5H33V38.5H36ZM23.8599 47.8098L22.8599 48.8098L21.8599 47.8098L22.8599 46.8098L23.8599 47.8098ZM40.8599 48L39.8599 49L38.8599 48L39.8599 47L40.8599 48ZM32.8599 55L31.3599 56.5L29.8599 55L31.3599 53.5L32.8599 55Z" fill="black"/>
</svg>
