<svg width="64" height="64" viewBox="0 0 64 64" fill="none" xmlns="http://www.w3.org/2000/svg">
<path fill-rule="evenodd" clip-rule="evenodd" d="M0 32V64H32H64V32V0H32H0V32ZM41.01 8.32634C42.493 15.2383 46.5 21.439 41.01 23.927C38.269 26.285 38.093 26.813 38.903 30.243C39.3975 32.339 39.1439 33.4201 39.1439 33.4201C39.1439 33.4201 37.8487 31.9901 36.533 29.073C34.72 25.052 34.72 25.047 37.06 23.152C39.294 21.344 39.347 21.014 38.201 16.052C36.603 9.129 37 9.5 37 9.5L41.01 8.32634ZM26.532 20.653C31.838 24.176 32.01 24.43 31.375 27.813C30.787 30.949 31.077 31.62 34.109 34.146L37.5 36.972L32.75 35.392C28.358 33.931 28 33.563 28 30.501C28 27.603 27.408 26.849 23.25 24.449C20.637 22.941 18.351 21.587 18.169 21.439L20.551 17C20.815 17 23.506 18.644 26.532 20.653ZM52 38V50H39H29L36.5 48L38 40.5L39.5 48.5L44.75 48.798L51 49.095V43.048V37V36.972C46.5 36.5 42 36 42 36C42 36 44.868 35.3415 48.807 34.3415C48.807 34.3415 49.5 34.5 50.552 30.5L52 26V38ZM25.076 36.585C27.124 38.77 25.831 40.004 29 39.5C31.063 39.171 35 38.468 35 38.468C35 38.468 35 38.468 32.75 40L26.5 42.5C23.25 37.5 24.5876 39.118 22.5 38C17.6333 37.2217 15.1863 38.1006 11 40.5L10 36C10 36 22.603 33.948 25.076 36.585ZM49.5 38V47H44.557H40V43.167C40 38.388 40 38 40 38H49.5Z" fill="black"/>
</svg>
