<svg width="64" height="64" viewBox="0 0 64 64" fill="none" xmlns="http://www.w3.org/2000/svg">
<path fill-rule="evenodd" clip-rule="evenodd" d="M0 32V64H32H64V32V0H32H0V32ZM47.93 11.75C47.968 12.438 47.55 13 47 13C46.45 13 46.032 11.538 46.07 9.75C46.129 7.026 46.5 7 46.5 7C46.973 8.1 47.891 11.063 47.93 11.75ZM47.5 15.491C46.95 15.675 45.215 16.11 43.645 16.458C41.429 16.949 40.905 17.528 41.302 19.045C41.583 20.12 41.341 21 41.341 21C41.341 21 37 18.869 37 18.158C37 16.998 42.095 15.216 45.5 15.185C47.15 15.17 47.5 15.491 47.5 15.491ZM53.75 15.689C52.788 15.941 50 15.491 50 15.491C52 15 52 15.232 52 15.232C53.925 15.232 54.712 15.438 53.75 15.689ZM41.234 24.834C42.079 27.899 39.459 30.559 34.942 31.222C29.313 31.8091 29.999 31.122 30.014 27.667C30.035 22.753 30.932 20.509 33.312 19.418C36.082 18.148 40.161 20.936 41.234 24.834ZM47.094 22.08C46 23.5 46 23.5 46 23.5C46 23.5 45.7414 18.028 47 18.5C47.683 19.183 47.734 20.478 47.094 22.08ZM29.313 25.25C28.987 28.138 29.446 31.057 29.313 31.222C29.18 31.386 27.5 31 25.5 31C22.5 30.5 23 29.141 23 27.344C23 25.09 29.128 19.5 31 19.5C31.444 19.5 29.639 22.362 29.313 25.25ZM40.53 34.595C39.63 35.968 37.785 37.596 36.43 38.214C34.363 39.156 33.733 39.028 32.515 37.418C30.122 34.256 30.014 31.61 34.142 32.279C35.867 32.158 38.229 31.421 39.39 30.642C41.214 29.418 41.545 29.421 41.833 30.662C42.016 31.452 41.43 33.222 40.53 34.595ZM29.8784 32.279C30.1864 32.621 30.146 34.737 30.789 36.25C35 40.5 31.7322 40.386 26.344 36.449C22.139 33.241 21.825 30.685 25.75 31.61C27.262 31.967 29.5704 31.938 29.8784 32.279ZM27.7 40.386C29.461 41.274 31.76 42 32.811 42C34.947 42 42.065 37.507 43.3 35.378C43.9182 34.3126 45 34.066 45 34.066C45 34.066 45.58 34.8902 45.29 36C44.844 37.703 45.259 38 48.086 38H51.406L47.699 41.796C44.809 44.755 44.258 45.858 45.196 46.796C46.135 47.735 46 47.937 46 47.937C43.278 47.873 38 47.5 38 47.5C39.019 47.236 39.92 46.234 39.633 45.486C39.35 44.749 39.778 43.599 40.584 42.931C43.172 40.782 41.368 40.847 36.801 43.066L32.359 45.224L28.219 43.112C23.105 40.503 22.193 40.451 24.406 42.896C25.734 44.364 25.826 44.903 24.811 45.282C23.98 45.593 24.415 46.156 26 46.823C26.7174 47.1243 27.5 47.5 27.5 47.5C27.5 47.5 26.2882 47.8994 23.128 47.937C18.398 47.992 17.908 47.815 19.034 46.459C20.11 45.162 19.782 44.37 16.96 41.459L13.608 38H16.304C18.41 38 19 37.522 19 35.813C19 34.9473 19.1893 34.2852 19.1893 34.2852C19.1893 34.2852 20.1275 34.6806 21.75 36.199C23.262 37.614 25.94 39.498 27.7 40.386Z" fill="black"/>
</svg>
