<svg width="65" height="65" viewBox="0 0 65 65" fill="none" xmlns="http://www.w3.org/2000/svg">
<path fill-rule="evenodd" clip-rule="evenodd" d="M0.17395 32.5V64.5H32.174H64.174V32.5V0.5H32.174H0.17395V32.5ZM33.936 6.75C35.81 9.076 36.2299 13.921 34.7929 16.648C33.5849 18.942 33.5999 19.497 34.9049 20.802C36.4429 22.341 35.782 24.994 34.116 23.964C33.611 23.652 33.4569 24.073 33.7739 24.901C34.2389 26.112 34.772 25.925 36.513 23.936L38.674 21.467L41.924 23.469C45.829 25.874 45.9029 26.466 42.6839 29.49C40.2189 31.806 40.1729 31.81 37.9339 29.914L35.674 28L37.5999 30.274C39.0709 32.009 39.2499 32.824 38.3569 33.717C37.4639 34.61 36.4749 34.204 34.1759 32.002L31.1649 29.117L27.7819 32.395C24.462 35.613 22.2489 35.352 23.5739 31.9C23.9229 30.991 23.731 30.656 23.089 31.053C22.008 31.721 17.174 27.845 17.174 26.311C17.174 25.849 18.6179 24.592 20.3829 23.519C23.4239 21.67 23.6969 21.657 25.6159 23.284C27.5349 24.911 27.569 24.909 26.284 23.25C25.389 22.094 25.31 21.5 26.052 21.5C26.669 21.5 27.174 20.77 27.174 19.878C27.174 18.565 27.4539 18.488 28.6399 19.472C29.4469 20.141 30.6839 20.457 31.3899 20.173C32.2199 19.84 32.0749 19.63 30.9809 19.579C27.0929 19.398 24.377 9.697 27.374 6.7C28.94 5.134 32.657 5.162 33.936 6.75ZM45.674 41.279L49.674 42.127L45.6619 42.787C42.6319 43.286 40.4389 44.677 36.6969 48.477L31.5989 53.5L26.709 48.538C23.1899 45.065 20.469 43.314 17.674 42.721L13.674 41.873L17.6859 41.213C20.7159 40.714 22.9089 39.323 26.6509 35.523L31.6049 30.494L36.639 35.462C40.158 38.935 42.879 40.686 45.674 41.279ZM26.885 37.286L22.1709 42.072L26.961 46.79L31.5989 51.5L35.9619 47.216C38.2789 44.856 41 41.873 41 41.873C41 41.873 38.245 39.023 35.886 36.708L31.5989 32.5L26.885 37.286ZM33 37V40H36V43H33V46H30V43H26.961L27 40H30V37H33Z" fill="black"/>
</svg>
