<svg width="64" height="65" viewBox="0 0 64 65" fill="none" xmlns="http://www.w3.org/2000/svg">
<path fill-rule="evenodd" clip-rule="evenodd" d="M0 32.8044V64.8044H32H64V32.8044V0.804443H32H0V32.8044ZM49.892 20.5544C44.999 29.1964 41.389 33.8044 41.389 33.8044C41.389 33.8044 41.802 32.1174 43.024 30.0544C44.247 27.9924 46.584 23.9424 48.219 21.0544L51.191 15.8044H32H12.809L15.781 21.0544C17.416 23.9424 19.753 27.9924 20.976 30.0544C22.198 32.1174 22.611 33.8044 22.611 33.8044C22.611 33.8044 19.001 29.1964 14.108 20.5544L10.853 14.8044H31.993H53.147L49.892 20.5544ZM44 20L42 23H25L31.993 33.7724L37 26H40.5L32 41L20 20C20 20 24.213 20 32.5 20C44.725 20 44 20 44 20ZM24 37L21 42.5L25.5 44.5L13.5 47.5L16 35.5L18 39.5L24 37ZM50.116 47.6104L38.5 43.7384L42 41.8044L38.766 36.6324L45 39.3044L46.5 35.8044L50.116 47.6104ZM29 44L32 47.8044L35 44L38 42C38 42 32.785 50.7754 32 50.7754C31.486 50.7754 26 42 26 42L29 44Z" fill="black"/>
</svg>
