<svg width="64" height="64" viewBox="0 0 64 64" fill="none" xmlns="http://www.w3.org/2000/svg">
<path fill-rule="evenodd" clip-rule="evenodd" d="M0 32V64H32H64V32V0H32H0V32ZM34.953 9.45C36.627 11.232 38.122 12 42 12H46.5L46.784 23.842L47.067 35.183L39.57 42.842L31.554 50.5L24.536 43.025L17 35.55V23.775V12H21.826C25.68 12 27.124 11.497 29 9.5C30.4511 7.95508 32 6 32 6C32 6 33.5326 7.93785 34.953 9.45ZM33.139 10.967L35.5 12.933L32.191 12.967C29.815 12.991 29.5 12 29.5 11C29.5 11 29.444 11.287 28.343 12.25C27.216 13.236 24.739 14 22.671 14H19V24.779V35.558L25.277 41.779L31.554 48L38.277 41.225L45 34.45V24.225V14H41.174C38.387 14 36.711 13.322 35 11.5C33.708 10.125 32.015 9 31.5 9C31.5 9 31.841 9.885 33.139 10.967ZM44 24.777V34L37.699 40.803L31.554 47L25.699 40.597L20 34.5V24.573V15H32H44V24.777ZM29.411 18.629C29.755 19.525 30.548 22.291 31.174 24.777C32.288 29.201 32.246 29.352 29.171 31.898L26.029 34.5L28.113 37.75C29.259 39.538 30.6948 41.225 30.6948 41.225C30.6948 41.225 30.827 39.538 30.504 37.75C29.982 34.858 30.307 34.238 33.459 32.121C37.307 29.536 37.597 28.256 35.881 21.443C34.87 17.426 34 15.5 34 15.5L29 17.5C29 17.5 29.1951 18.0668 29.411 18.629ZM22.98 43.478L25.308 45.957L19.904 44.102C16.932 43.081 13.825 42.001 13 41.702C12.175 41.403 13.559 41.122 16.076 41.079C19.714 41.016 21.128 41.508 22.98 43.478ZM46.886 42.948C43.798 43.92 40.648 45.076 39.886 45.518C39.124 45.961 39.591 45.125 40.924 43.661C42.909 41.482 44.178 41.017 47.924 41.091L52.5 41.182L46.886 42.948Z" fill="black"/>
</svg>
