<svg width="64" height="64" viewBox="0 0 64 64" fill="none" xmlns="http://www.w3.org/2000/svg">
<path fill-rule="evenodd" clip-rule="evenodd" d="M0 32V64H32H64V32V0H32H0V32ZM27.5 10.5H31.5L33.5 9.5L30 17L30.5 11.5H25L26.5 8.5L28 5L27.5 10.5ZM23.3903 12.5L23.861 18L22 15L18.5 18L16.297 20.1605L17.689 21.705L19 23L14.3903 21L15.8903 19.5L23.3903 12.5ZM43.493 17.124L47 22.7772H41.2019L45 21.5L43.5 19.5L39.5 14.5L37.319 16.254L40 11.5L43.493 17.124ZM37 23.5L32.916 28L34 23C34 23 29.084 23 26.5 23L34.5 32L39.819 37.789H29.881H20.3445L27 30L28.8659 31.725L26 35H29.845C31.58 35 33.5 35 33.5 35C33.5 35 29.975 30.501 26.277 26.775L19.554 20H29.861H40.168L37 23.5ZM47 23.5L53.7947 27.45L49 26.5C49 26.5 49 28.0011 49 29.5951H48H42C42 28.4731 42 28 42 28H47V23.5ZM19.3903 26.5L17.3903 27L13.8903 27.5V31.5V34L7.39025 30.5H12L11.8903 26L19.3903 26.5ZM15.3903 37L21.3903 45.5L24.8903 41.5L21.8903 48.5L15.8903 40L13.3903 36L19.5173 35.3154L15.3903 37ZM48.2447 35.127L43.3903 42L39.3903 47.5L34.8903 40L36.8903 42L39.819 44.6779L45.8903 36.5L43.8903 36L40.5 35.127L42.781 35.063C44.036 35.029 48.2447 35.127 48.2447 35.127ZM30.5 46C30.5 46 31.533 46 33 46C35.372 46 35.8903 46 35.8903 46L32.1219 51.7997L32.8903 48H28L29 43C29 43.0546 29.5 40.5 29.5 40.5L30.5 46Z" fill="black"/>
</svg>
