<svg width="64" height="64" viewBox="0 0 64 64" fill="none" xmlns="http://www.w3.org/2000/svg">
<path fill-rule="evenodd" clip-rule="evenodd" d="M0 32V64H32H64V32V0H32H0V32ZM33.547 8.784C32.979 11.373 33.236 11.653 37.218 12.776C41.799 14.068 45.435 16.411 49 21L51.5 23.5C50.0475 24.1734 45.0888 27.0713 45.0888 27.0713C45.0888 27.0713 47.8859 24.3228 49.5 23.248L44.667 18.409L39.5 14L37.939 16.035C36.897 17.391 36 17.5 36 17.5C36 17.5 36.457 15.835 37.016 15.49C37.575 15.144 37.774 14.443 37.457 13.931C36.685 12.681 33 12.738 33 14C33 14.55 33.466 15 34.035 15C34.723 15 34.697 15.698 33.956 17.083C33.3796 18.1594 32.5 19 32.5 19C32.5 19 32.0899 18.1457 31.491 17.333C30.748 16.325 30.558 15.35 31.07 15.167C32.787 14.551 32.021 13 30 13C27.772 13 28.5 15.167 28.5 15.167L29.322 18C29.322 18 27.57 16.988 26.746 15.75L25.248 13.5L20.409 18.333L15.57 23.167L18.035 25.061C19.391 26.103 19.5 27 19.5 27C19.5 27 17.835 26.543 17.49 25.984C17.144 25.425 16.443 25.226 15.931 25.543C14.681 26.315 14.738 30 16 30C16.55 30 17 29.534 17 28.965C17 28.277 17 28.5 17 28.5L20.368 30.3203L17.167 32.474V31.93C16.596 30.339 15.006 30.91 14.884 32.75C14.8271 33.6102 14.6943 33.9335 14.6943 33.9335C14.6943 33.9335 14.4977 33.4568 14.299 32.689C13.925 31.245 13.221 31.012 10.822 31.539L8.217 30.35L10.822 28.965C10.822 28.965 13.86 28.974 14.72 25.758C16.228 20.121 22.124 14.227 27.765 12.718C31.773 11.646 32.023 11.38 31.453 8.784C30.975 6.612 31.206 6 32.5 6C33.794 6 34.025 6.612 33.547 8.784ZM42 21L35 28L37 24H30C30 24 32.943 28.4 36.54 32.339L43.1688 39.788H33.411L23 40L30.957 32.474L29 37C29 37 29 37 32.532 37H36.374L33.454 33.75C31.848 31.962 28.518 28.363 26.055 25.75L21.575 21H31.788C37.404 21 42 21 42 21ZM54.085 29.481C57 30.5 57 30.546 57 30.546C57 30.546 57 30.546 54 31.65C51.617 31.173 50.976 31.405 50.884 32.775C50.701 34 50.701 34 50.701 34C50.701 34 50.5099 33.511 50.311 32.75C49.821 30.876 48 30.312 48 32.035C48 32.723 48 32.5 48 32.5L44.3803 30.7756L47.833 29.07C48.404 30.661 49.994 30.09 50.116 28.25C50.174 27.3733 50.311 27.0713 50.311 27.0713L50.701 28.311C51.071 29.74 51.785 29.987 54.085 29.481ZM15.5217 37.833H15.57L20 43L25 46.5L27.061 44.965L29 43.5L26.8349 48.2566V48.311C26.8349 48.311 25.69 48.046 22.472 45.84C19.33 43.687 14 38.306 14 36.5C14 35.471 19.985 33.768 19.985 33.768L15.5217 37.833ZM50.4258 36C50.4258 36 41.4258 47 40.965 47C40.965 47 42.326 44.937 44.847 42.417L48.9258 37L44.5 33.875L50.4258 36ZM33.93 45.833C32.339 46.404 32.91 47.994 34.75 48.116C35.6267 48.174 35.9287 48.311 35.9287 48.311C35.9287 48.311 35.4397 48.5068 34.689 48.701C33.245 49.075 33.012 49.779 33.539 52.178L32.35 54.783L31.1644 52.178C31.6574 50.911 31.702 48.968 30.357 48.884C29.4787 48.829 29.0836 48.701 29.0836 48.701C29.0836 48.701 29.4985 48.5071 30.25 48.311C32.124 47.821 32.688 46 30.965 46C30.277 46 30.303 45.302 31.044 43.917C32.115 41.917 32.212 41.907 33.509 43.667C34.252 44.675 34.442 45.65 33.93 45.833ZM39.4258 46.5L37.4258 48L35.9874 43.0988L39.4258 46.5Z" fill="black"/>
</svg>
