<svg width="65" height="65" viewBox="0 0 65 65" fill="none" xmlns="http://www.w3.org/2000/svg">
<path fill-rule="evenodd" clip-rule="evenodd" d="M0.5 32.644V64.644H32.5H64.5V32.644V0.644028H32.5H0.5V32.644ZM42.298 12.644H46.5V24.87V37.097L39.274 44.372L32.047 51.647L24.274 43.919L16.5 36.191V24.417V12.644H21.313C25.358 12.644 26.586 12.164 29.007 9.63603L32 6.64403L34.992 9.63603C37.442 12.01 38.98 12.644 42.298 12.644ZM29.51 11.133C27.696 13.064 26.152 13.644 22.826 13.644H18.5V24.921V36.198L25.276 42.922L32.052 49.646L38.776 42.87L45.5 36.094V24.869V13.644H41.305C38.188 13.644 36.436 12.999 34.489 11.133L32 8.64403L29.51 11.133ZM34.5 12.644C34.5 12.644 34.327 12.644 32 12.644C29.673 12.644 29.5 12.644 29.5 12.644C30.185 11.819 32 9.64403 32 9.64403C32 9.64403 33.815 11.819 34.5 12.644ZM36.312 17.394C37.646 18.542 38.58 20.974 39.026 24.461C39.641 29.265 39.51 29.829 37.672 30.309C36.554 30.602 35.396 31.472 35.101 32.243C34.418 34.02 29.859 34.075 28.8 32.319C28.36 31.59 27.171 30.688 26.157 30.314C24.561 29.726 24.403 28.932 24.984 24.39C25.716 18.658 28.134 15.644 32 15.644C33.253 15.644 35.194 16.431 36.312 17.394ZM26.5 27.144C26.5 27.969 27.148 28.644 27.941 28.644C30.057 28.644 30.743 26.951 28.912 26.249C26.684 25.394 26.5 25.462 26.5 27.144ZM34.744 26.308C34.053 26.587 33.742 27.226 34.053 27.729C34.935 29.156 37.225 28.804 37.862 27.144C38.433 25.655 37.191 25.322 34.744 26.308ZM34 36C32.5 36.5 31.5 36.5 30 36C28.0774 34.7965 29 33.5 29 33.5C29 33.5 29.3408 33.5227 32 35C35.0556 33.6111 35 33.5 35 33.5C35 33.5 35.5556 34.6667 34 36ZM38.5 40.644L32.047 47.65L25.108 40.644H31.804C35.487 40.644 38.5 40.644 38.5 40.644ZM23.095 44.814C24.3874 46.286 24.5 46.644 24.5 46.644C24.5 46.644 23.6159 46.4383 23 46.196C21.9 45.763 18.975 44.827 16.5 44.116L12 42.823L16.595 42.733C20.129 42.665 21.63 43.145 23.095 44.814ZM47.5 44.116C45.025 44.827 42.1 45.763 41 46.196C40.1246 46.5403 39.5304 46.644 39.5304 46.644C39.5304 46.644 39.8597 46.0046 40.905 44.814C42.37 43.145 43.871 42.665 47.405 42.733L52 42.823L47.5 44.116Z" fill="black"/>
</svg>
