<svg width="65" height="65" viewBox="0 0 65 65" fill="none" xmlns="http://www.w3.org/2000/svg">
<path fill-rule="evenodd" clip-rule="evenodd" d="M0.24707 32.5V64.5H32.2471H64.2471V32.5V0.5H32.2471H0.24707V32.5ZM31.9944 10.842C32.9804 14.342 30.7471 14 30.6461 15.177C29.7471 13.5 27.2261 13.641 28.5011 10.842C30.5631 11.1561 30.8048 6 30.8048 6C30.8048 6 31.2471 5.5 31.9944 10.842ZM37.2471 20.955C37.2471 21.728 38.2551 22.505 39.4871 22.68C43.1331 23.201 42.8901 26.32 39.0731 27.977C37.2441 28.772 36.4341 29.439 37.2741 29.461C38.1151 29.482 39.8021 28.799 41.0241 27.943C43.1831 26.431 43.2471 26.479 43.2471 29.599C43.2471 31.47 42.2211 34.156 40.7901 36.032C39.4391 37.804 38.2971 39.468 38.2971 39.468C38.2971 39.468 37.7991 43.078 35.8991 46.506L32.6741 52C31.9941 50.697 28.8661 46.087 27.5151 43.75C26.1631 41.412 25.9441 39.5 25.9441 39.5C25.9441 39.5 28.0711 42.029 29.5861 45.119C31.1021 48.21 32.6741 50.369 32.6741 50.369C32.6741 50.369 34.1971 47.63 35.6521 44.734L38.2971 39.468L34.4051 40.091C32.0581 40.466 29.5681 40.223 28.1301 39.478C25.0421 37.878 21.3291 33.461 21.2831 31.333C21.2631 30.417 20.8721 29.517 20.4141 29.333C19.9561 29.15 17.8921 25.962 15.8281 22.25L12.0751 15.5L19.4111 15.693L26.7471 15.885L20.5071 16.24L14.2661 16.595L17.4111 22.797C19.1411 26.209 20.7551 28.419 20.9991 27.708C21.2831 26.88 21.8551 26.746 22.5941 27.336C23.2281 27.842 24.8721 28.57 26.2471 28.955C28.2401 29.513 28.0451 29.21 25.2821 27.461L21.8161 25.267L24.1421 23.384C25.4221 22.348 27.2661 21.5 28.2411 21.5C29.2161 21.5 31.7471 23 30.5631 19.399C30.7471 18 31.5571 17.573 32.3341 18.054C34.7471 20.955 33.2991 18.393 32.8981 17.745C32.5371 17.159 33.9001 14.904 34.2471 14C34.2471 14 33.8571 13.974 35.3751 16.47C35.1381 19.399 37.2471 20.181 37.2471 20.955ZM52.2471 16.088C52.2471 17.161 44.6301 29.216 44.6301 29.216C44.6301 29.216 45.5851 26.392 47.2261 23.414C48.8681 20.436 50.2191 17.684 50.2291 17.298C50.2391 16.911 47.4351 16.436 43.9971 16.24L37.7471 15.885L44.9971 15.693C48.9841 15.587 52.2471 15.764 52.2471 16.088ZM26.7631 23.865C25.0181 25.14 25.1201 25.302 28.3221 26.351C31.4911 27.39 35.5971 27.22 39.2471 25.9C40.5051 25.445 40.4481 25.137 38.8881 23.988C37.4291 22.915 36.6211 22.874 35.1381 23.8C33.6751 24.714 32.7981 24.701 31.2611 23.741C28.8201 22.216 29.0251 22.211 26.7631 23.865ZM52.7471 38L43.2471 36.5L46.5861 31.5C46.5861 31.5 50.8511 36.012 52.7471 38ZM21.8161 37.5L11.7471 40L19.2471 33L21.8161 37.5Z" fill="black"/>
</svg>
