<svg width="65" height="65" viewBox="0 0 65 65" fill="none" xmlns="http://www.w3.org/2000/svg">
<path fill-rule="evenodd" clip-rule="evenodd" d="M0.5 32.8607V64.8607H32.5H64.5V32.8607V0.860703H32.5H0.5V32.8607ZM43.639 11.7817C45.966 13.6747 45.975 13.7457 44.212 16.7497C43.229 18.4257 42.469 21.0487 42.524 22.5787C43.03 36.7827 43.189 35.8557 39.724 38.9517C35.881 42.3857 33.782 42.5557 28.5 39.8607C25.427 38.2927 24.314 36.9707 23.346 33.7417C22.258 30.1097 22.342 29.1927 24.056 25.9917C25.331 23.6107 27.427 21.7157 30.146 20.4857C34.26 18.6257 36.5 15.5687 36.5 11.8137C36.5 9.2197 40.468 9.2017 43.639 11.7817ZM41 14.3607C43.398 15.4539 43.398 15.0215 43.398 14.2957C43 13.3607 40.486 10.8367 39 10.8607C37 12.3607 38.5 12.8607 41 14.3607ZM37.338 17.3167C36.723 18.6677 34.271 20.6877 31.89 21.8077C27.548 23.8487 24.414 28.0367 24.59 31.5607C24.64 32.5507 25.112 31.8637 25.639 30.0337L26.597 26.7057L33.962 27.0337C40.001 27.3017 42 34.3607 41 28C40.573 27.24 40.17 22.8267 40.656 20.6637C41.967 14.8267 39.573 12.4107 37.338 17.3167ZM18 25.8607V30.8607H20.045L17 34.3607L14 30.8607H16V25.8607H18ZM51 25.9917V31.8607H53L50 34.3607L47 31.8907L49 31.8607V25.9777L51 25.9917ZM25.5 34.7007C25.5 36.2967 31.497 39.8737 34 39.7707C35.426 39.7127 35.173 39.4417 33.119 38.8267C31.535 38.3517 29.172 36.9617 27.869 35.7377C26.566 34.5137 25.5 34.0467 25.5 34.7007ZM37.905 37.1107L36 39.3607L38.25 37.4557C39.487 36.4077 40.5 35.3957 40.5 35.2057C40.5 34.4057 39.695 34.9967 37.905 37.1107ZM26.936 45.4477C28.621 46.1817 28.482 46.8217 28.482 46.8217C28.482 46.8217 26 45.8607 21.5 42.8607C18 38.9517 17.144 36.6073 17.144 36.6073C17.144 36.6073 18.3303 37.7765 20.045 39.7377C22.15 42.1447 25.251 44.7147 26.936 45.4477ZM47.848 40.1877C45.632 43.1407 38.885 46.5787 38.885 46.5787C38.885 46.5787 39.698 45.2927 41.389 44.4177C43.081 43.5437 45.453 41.4907 46.661 39.8567C47.869 38.2227 49.277 37.3047 49.277 37.3047C49.277 37.3047 48.865 38.8327 47.848 40.1877ZM37.5 43.8607L33.5 50.8607L29.5 43.8607H37.5Z" fill="black"/>
</svg>
