<svg width="65" height="65" viewBox="0 0 65 65" fill="none" xmlns="http://www.w3.org/2000/svg">
<path fill-rule="evenodd" clip-rule="evenodd" d="M0.845703 32.5V64.5H32.8457H64.8457V32.5V0.5H32.8457H0.845703V32.5ZM41.2437 11.635C44.4067 13.077 45.2517 15.237 43.3817 17.106C41.282 19.6331 41.4238 26.6936 42.0607 27.94C42.2698 29.7217 42.5994 30.2504 43.4557 30.604L47.5307 23.106L51.6047 15.609L48.4757 15.214C45.5407 14.845 45.5787 14.81 49.0957 14.66C51.1587 14.572 52.8157 14.838 52.7797 15.25C52.7427 15.662 50.7277 19.375 48.3007 23.5C45.8737 27.625 43.1607 32.575 42.2707 34.5C41.3817 36.425 39.7187 39.013 38.5757 40.25C34.0227 45.179 24.1307 41.346 22.6177 34.067C22.1717 31.916 21.4387 29.671 20.9897 29.078C20.5417 28.485 18.4877 24.935 16.4267 21.188L12.6787 14.376L24.2637 14.688C35.7047 14.996 35.8497 14.972 35.8477 12.75C35.8457 10.239 37.4517 9.908 41.2437 11.635ZM39.4047 13.968C41.9437 15.889 43.4297 15.908 41.8457 14C41.1607 13.175 39.8947 12.5 39.0317 12.5C37.7767 12.5 37.8507 12.793 39.4047 13.968ZM14.5 15.609C14.687 16.022 16.8747 19.909 18.7257 23.465L22.0917 29.931L23.7257 26.47C24.7947 24.206 26.7407 22.361 29.3527 21.136C33.1627 19.35 34.7967 17.892 34.8307 16.25C34.8387 15.838 30.3077 15.5 24.7627 15.5C19.2167 15.5 14.313 15.197 14.5 15.609ZM35.6667 18.443C34.7437 20.077 32.4937 22.038 30.6667 22.802C26.2947 24.63 24.7757 26.605 24.1487 31.281C23.6907 34.696 23.9977 35.45 26.8147 37.821C31.1467 41.465 34.9667 41.333 38.2567 37.423C39.6807 35.731 40.8167 33.594 40.7827 32.673C40.7095 30.6895 40.3273 30.5651 39.7297 33.479C38.3267 36.997 35.8347 39.5 33.7377 39.5C28.4837 39.5 23.8907 34.083 25.3227 29.574C25.9017 27.749 26.7817 27.499 32.6627 27.496C36.3246 28.3042 39.3411 29.4992 39.3457 27.491L39.6227 24.246C39.7757 22.46 40.0007 19.889 40.1227 18.531C40.4467 14.947 37.6737 14.893 35.6667 18.443ZM53.4927 37.186L44.8457 36.1497L47.3457 30.6497L53.4927 37.186ZM22.3457 36.6497C22.3457 36.6497 12.8637 38.664 12.8457 38.742L16.0957 35.399L19.3457 32.1497L22.3457 36.6497ZM31.4447 46.692L33.0957 49.884L34.9287 46.442C35.8457 45 36.7617 44 36.7617 44C36.7617 44 35.9357 46.552 34.9257 48.449L33.0887 51.897L30.9467 47.699C29.7687 45.389 29.2997 43.5 29.2997 43.5C29.2997 43.5 30.5367 44.936 31.4447 46.692Z" fill="black"/>
</svg>
