<svg width="64" height="65" viewBox="0 0 64 65" fill="none" xmlns="http://www.w3.org/2000/svg">
<path fill-rule="evenodd" clip-rule="evenodd" d="M0 32.5V64.5H32H64V32.5V0.5H32H0V32.5ZM27.604 19.229C26.588 20.246 25.749 18.715 26.583 17.366C27.5 15.5 27.604 16 27.787 17.362C28.019 18.057 27.936 18.897 27.604 19.229ZM42.25 17.892C44.359 19.493 44.543 21.5 42.582 21.5C40.7055 18.206 40.217 23.03 39.061 24.901C37.084 28.1 35.182 29.5 32.811 29.5C32.247 29.5 32.027 28.871 32.322 28.103C33.056 26.191 28.509 25.408 26.253 27.057C25.29 27.761 24.877 28.711 25.335 29.168C26.694 30.527 37.276 30.171 37.75 28.75C42.5 25.5 42.582 25.1 41 28.548C41 29.125 39.538 30.232 37.75 31.009C35.105 32.159 29.004 32.028 36.691 32.461C37.896 32.482 39.16 32.05 39.5 31.5C40.62 29.688 42 30.457 42 32.894C42 35.882 37.184 41.165 33.652 42.051C32.194 42.417 29.945 42.452 28.657 42.129C25.022 41.217 21 36.625 21 33.388C21 30.734 21.171 30.615 23.639 31.553C25.09 32.105 26.805 32.028 26.805 32.028C36.8608 32.461 31.5 31.5 26.358 31.5C25.821 31.5 24.526 30.874 23.479 30.108C21.862 28.926 21.776 28.475 22.91 27.108C23.644 26.224 25.09 25.5 26.122 25.5C27.155 25.5 28 25.05 28 24.5C28 23.95 28.7754 24.25 28.7754 24.25C29.3574 24.25 28.7754 24.25 29.657 24.25C29.404 24.663 30.445 25.045 31.971 25.1C34.065 25.176 35.201 24.439 36.599 22.1C37.618 20.395 42.25 19.5 38.182 17.75C37.831 16.125 39.061 15 42.25 17.892ZM18.297 18.423L12.093 19L15.524 24.5C17.411 27.525 19 31.553 19 31.553C19 31.553 17.733 31.468 13.097 23.25L9.853 17.5L17.177 17.673L24.5 17.845L18.297 18.423ZM52 18.044L43.745 31.5C43.745 31.5 47.288 23.184 49.165 21.05C50.538 19.488 50.128 18.664 47.75 18.206C46.123 17.892 46 17.892 46 17.892C47.788 17.817 52 18.044 52 18.044ZM33.554 20.587C33.923 21.185 33.706 22.194 33.071 22.829C32.199 23.701 31.699 23.631 31.024 22.539C30.071 20.997 30.552 19.5 32 19.5C32.485 19.5 33.184 19.989 33.554 20.587ZM18 36L11 37.5V34L18 36ZM53 38L44 36.5L53 34.5V38ZM34.256 48.539L31 53.5L28.152 48.592C26.428 45.792 25.91 43.5 25.91 43.5C25.91 43.5 27.793 45.179 29.004 47.231L31 51L33.728 46.69C35.116 44.341 36.739 42.906 36.739 42.906C36.739 42.906 35.89 45.709 34.256 48.539Z" fill="black"/>
</svg>
