<svg width="64" height="65" viewBox="0 0 64 65" fill="none" xmlns="http://www.w3.org/2000/svg">
<path fill-rule="evenodd" clip-rule="evenodd" d="M0 32.7264V64.7264H32H64V32.7264V0.726368H32H0V32.7264ZM35.429 8.29737C36.293 9.16237 37.012 10.8494 37.026 12.0474C37.044 13.6064 38.199 14.7554 41.085 16.0874C46.663 18.6604 50.225 24.3254 50.797 31.5364C51.105 35.4244 51.86 37.8104 53.181 39.0694C57.124 42.8264 52.67 50.2254 47.977 47.7144C46.811 47.0904 45.307 47.5584 42.84 49.3134C36.535 53.7994 28.266 53.7534 21.547 49.1934C18.844 47.3594 17.434 46.9594 16.133 47.6554C11.264 50.2604 6.691 42.6834 10.938 39.0474C12.377 37.8154 13.007 36.0654 13.022 33.2544C13.034 31.0384 13.863 27.4224 14.865 25.2174C16.814 20.9274 23.121 14.7264 25.535 14.7264C26.42 14.7264 27 13.7644 27 12.2974C27 7.51737 32.187 5.05637 35.429 8.29737ZM29.011 9.21337C28.303 10.0664 28.046 11.7724 28.407 13.2134C29.319 16.8474 34.681 16.8474 35.593 13.2134C36.316 10.3324 34.61 7.72637 32 7.72637C31.035 7.72637 29.69 8.39537 29.011 9.21337ZM32.429 10.2974C34.613 12.4824 32 13.2134 32 14.7264C31.457 13.2134 29.176 11.7784 31.25 11.6474C32.25 11.5844 32.6907 11.6474 31.25 11.0644C30.563 10.7864 30 9.64337 30 9.64337C32.429 10.2974 31.17 10 32.429 10.2974ZM35.486 15.7484C34.986 16.5584 33.293 16.7644 30.401 16.3674L26.065 15.7734L20.81 25.1944C17.92 30.3754 15.149 34.2094 15.149 34.2094C15.149 34.2094 16.832 30.1164 19.385 25.6114C21.937 21.1054 23.852 17.2444 23.639 17.0314C23.425 16.8184 21.877 17.8004 20.197 19.2134C14.125 24.3234 12.213 36.1644 17.043 38.7494C18.31 39.4274 19 40.8424 19 42.7614V45.7264H32H45V42.7614C45 40.7004 45.686 39.4404 47.25 38.6264C48.487 37.9824 49.626 37.3534 49.78 37.2274C50.21 36.8774 39.067 17.4074 37.563 15.8804C36.54 14.8424 36.065 14.8124 35.486 15.7484ZM43.57 23.4764C45.628 27.1884 47.917 31.1144 48.656 32.1994C49.939 34.0824 50 34.0504 50 31.5144C50 27.6414 48.548 24.4204 44.963 20.3374C40.044 14.7344 39.457 16.0574 43.57 23.4764ZM37.486 20.0924C39.298 21.4174 39.3 21.5744 37.543 25.2764C36.007 28.5134 35.915 29.6034 36.938 32.4314C37.963 35.2654 37.87 36.3294 36.322 39.4924C33.83 44.5844 30.089 45.8314 25.211 43.1954C18.324 39.4734 19.142 30.7754 26.728 27.0694C29.404 25.7614 30.778 24.2824 31.457 21.9764C32.491 18.4644 34.43 17.8584 37.486 20.0924ZM34 20.5844C34 21.6124 37.029 23.0304 37.729 22.3314C37.972 22.0874 37.233 21.3864 36.086 20.7724C34.938 20.1584 34 20.0734 34 20.5844ZM31.17 25.7094C29.944 27.3694 28.109 28.7264 27.093 28.7264C24.502 28.7264 22.908 30.9954 22.297 35.5514C21.856 38.8374 22.142 39.7124 24.109 41.0904C26.846 43.0074 32.084 43.2424 33.8 41.5264C35.743 39.5834 35.172 38.2614 33.171 40.0714C29.205 43.6614 22.454 40.6154 23.17 35.5584C23.463 33.4904 24.112 33.1914 28.905 32.9184C31.878 32.7494 34.578 33.0444 34.905 33.5734C35.232 34.1024 35.495 32.0264 35.489 28.9604C35.483 25.8944 35.011 23.2304 34.44 23.0394C33.868 22.8494 32.397 24.0504 31.17 25.7094ZM11.011 40.2134C10.29 41.0824 10.045 42.7704 10.423 44.2744C10.973 46.4664 11.546 46.8024 14.284 46.5374C16.766 46.2974 17.575 45.7004 17.827 43.9214C18.451 39.5194 13.722 36.9474 11.011 40.2134ZM49.626 40.1944C49 43.1954 51.557 41.62 52 41.5C52 41.5 52 41.9944 50.074 43.8944C47.25 44.2744 47.25 45 48.656 42C48.656 40.082 47.695 39.6314 46.915 40.4114C46.319 41.0074 45.981 42.5604 46.165 43.8614C46.426 45.7064 47.207 46.2944 49.716 46.5374C52.454 46.8024 53.027 46.4664 53.577 44.2744C53.955 42.7704 53.71 41.0824 52.989 40.2134C51.387 38.2824 48.887 38.2684 49.626 40.1944ZM15.506 40.7354C15.506 44.2744 15.163 45.7264 14 45.7264C12.837 45.7264 12.5 44.2264 12.494 40.7354C12.837 40.1804 13.515 39.7264 14 39.7264C14.485 39.7264 15.163 40.1804 15.506 40.7354ZM22 47.7774C22 49.2284 28.292 51.7264 31.948 51.7264C35.736 51.7264 43.173 48.8144 42.434 47.6204C41.633 46.3234 22 46.4744 22 47.7774Z" fill="black"/>
</svg>
