<svg width="64" height="65" viewBox="0 0 64 65" fill="none" xmlns="http://www.w3.org/2000/svg">
<path fill-rule="evenodd" clip-rule="evenodd" d="M0 32.7503V64.7503H32H64V32.7503V0.750317H32H0V32.7503ZM38.1389 24.2503L37.5 24.7503L32 15.7503L23.3023 29.8106L22.5 29.2503C22.5 29.2503 30.495 16.4063 32 13.7503L38.1389 24.2503ZM11 22.7503C14.243 25.2873 15.542 25.2423 17.443 22.5273C18.299 21.3053 19.5 21.7503 19.5 21.7503L13 33.2503C13 33.2503 11.806 31.9823 12.997 29.7553C13.796 28.2623 13.47 27.4793 11.363 25.8213C9.915 24.6823 8.116 23.7503 7.365 23.7503C6.614 23.7503 6 23.0753 6 22.2503C6 20.2033 7.999 20.4033 11 22.7503ZM41.37 25.3073C39.707 27.8473 39.713 27.8603 42.275 27.2173C43.694 26.8613 45.636 27.0073 46.59 27.5413C47.3722 27.9787 47.7098 28.4599 47.7098 28.4599C47.7098 28.4599 47.1583 28.8825 46.163 29.1983C43.473 30.0523 43.431 30.9133 46 32.5183C47.4366 33.4156 47.5 35.7503 47.5 35.7503C47.5 35.7503 47.0484 35.3336 45.75 35.0203C43.906 34.5763 43.725 34.7193 44.75 35.8143C45.438 36.5493 46 38.0463 46 39.1413C46 40.2116 45.75 40.6127 45.75 40.6127C45.75 40.6127 45.1737 40.0648 44.498 39.1913C43.33 37.6833 43.126 37.6263 43.581 38.9393C43.904 39.8683 43.733 41.4043 43.203 42.3523C42.7528 43.157 42.2631 43.4487 42.2631 43.4487C42.2631 43.4487 41.854 42.8659 41.552 41.9133C41.174 40.7233 40.235 39.7503 39.464 39.7503C38.027 39.7503 38.406 42.0773 40.229 44.4423C40.885 45.2923 40.013 45.9393 37.19 46.6993C33.154 47.7853 30.491 49.9073 31.675 51.0923C31.9607 51.3777 32 51.5 32 51.5H28L25.8847 50.4243C25.8847 50.4243 26.9842 48.7867 29.463 47.2193C34.249 44.1943 35.599 40.7503 32 40.7503C30.9 40.7503 30 41.1293 30 41.5933C30 42.0563 28.313 43.2903 26.25 44.3343C24.188 45.3783 21.653 46.9123 20.617 47.7413C19.7949 48.4003 19.1575 48.6747 19.1575 48.6747C19.1575 48.6747 19.0964 48.0009 19.459 46.7503C19.858 45.3753 21.451 43.1253 23 41.7503C24.549 40.3753 26.089 38.3503 26.423 37.2503C27.46 33.8333 38.514 22.7503 40.885 22.7503C41.8615 22.7503 43.5 23.2503 43.5 23.2503C43.5 23.2503 42.2324 23.9919 41.37 25.3073ZM17.199 25.8213L28.8647 33.4463L26.8346 36.3289C26.8346 36.3289 20.1294 31.8203 15.3708 29.0557L17.199 25.8213ZM21.6091 32.9047L12.997 49.6693L18.335 49.8373L23.5 50.4243L17.75 50.5873C14.588 50.6773 12 50.2033 12 50.2033L20.8744 32.4349L21.6091 32.9047ZM29 36.2503C28.293 37.1023 27.94 38.0233 28.215 38.2983C28.49 38.5733 29.293 38.1023 30 37.2503C30.707 36.3983 31.06 35.4773 30.785 35.2023C30.51 34.9273 29.707 35.3983 29 36.2503ZM45.9785 38.7503L53.084 50.7503L43.792 50.5463L34.5 50.3433L42.75 50.0063L50.999 49.6693L49 45.7493C47.9 43.5943 45.9876 40.0574 45.9876 40.0574L45.9785 38.7503Z" fill="black"/>
</svg>
