<svg width="64" height="64" viewBox="0 0 64 64" fill="none" xmlns="http://www.w3.org/2000/svg">
<path fill-rule="evenodd" clip-rule="evenodd" d="M0 32V64H32H64V32V0H32H0V32ZM33 8L35 31.5C35 31.5 34.878 36 33 36C31.122 36 31 31.5 31 31.5L33 8ZM24.087 24.343C25.152 25.254 26.468 26 27.011 26C28.294 26 28.276 27.324 26.977 28.623C26.414 29.186 25.753 30.688 25.508 31.96C25.263 33.233 24.373 35.035 23.531 35.966C22.689 36.896 22 38.578 22 39.704C22 44.052 20.659 48.112 18.914 49.046C17.064 50.036 9 47.614 9 46.067C9 45.674 10.462 43.36 12.25 40.926C14.97 37.222 15.966 36.553 18.356 36.827C20.044 37.02 20.964 36.751 20.605 36.171C20.271 35.63 19.194 35.398 18.211 35.655C15.803 36.285 11.355 32.635 10.764 29.544C10.41 27.692 10.905 26.637 12.671 25.48C13.983 24.62 15.505 24.194 16.053 24.533C16.601 24.872 16.985 24.778 16.906 24.324C16.592 22.517 17.107 22.148 19.576 22.411C20.993 22.562 23.023 23.431 24.087 24.343ZM49.225 23.863C49.074 24.57 49.399 24.872 49.947 24.533C50.495 24.194 52.017 24.62 53.329 25.48C55.095 26.637 55.59 27.692 55.236 29.544C54.645 32.635 50.197 36.285 47.789 35.655C46.806 35.398 45.729 35.63 45.395 36.171C45.036 36.751 45.956 37.02 47.644 36.827C50.034 36.553 51.03 37.222 53.75 40.926C55.538 43.36 57 45.674 57 46.067C57 47.338 49.324 49.898 47.189 49.339C45.517 48.902 44.989 47.71 44.443 43.149C44.026 39.663 43.006 36.667 41.779 35.324C40.685 34.127 40.048 32.731 40.363 32.221C40.678 31.712 40.29 30.441 39.5 29.397C37.78 27.126 37.629 26 39.042 26C39.615 26 40.952 25.191 42.012 24.203C44.231 22.136 49.649 21.88 49.225 23.863ZM14.452 27.881C13.329 29.005 14.196 30 16.3 30C17.565 30 19.031 30.431 19.558 30.958C20.161 31.561 21.07 31.567 22.008 30.974C23.095 30.287 23.144 30.026 22.191 30.015C21.471 30.007 21.157 29.555 21.493 29.011C21.843 28.445 21.442 28.277 20.552 28.618C19.698 28.946 19 28.812 19 28.321C19 27.414 15.28 27.054 14.452 27.881ZM47 28.274C47 28.791 46.302 28.946 45.448 28.618C44.558 28.277 44.157 28.445 44.507 29.011C44.843 29.555 44.529 30.007 43.809 30.015C42.856 30.026 42.905 30.287 43.992 30.974C44.93 31.567 45.839 31.561 46.442 30.958C46.969 30.431 48.472 30 49.783 30C51.16 30 52.002 29.505 51.776 28.829C51.309 27.427 47 26.927 47 28.274ZM40 37.934C40 38.447 38.763 39.01 37.25 39.184C34.659 39.482 34.5 39.789 34.5 44.5C34.5 48.278 33 49.5 33 49.5C33 49.5 31.5 48.278 31.5 44.5C31.5 39.789 31.341 39.482 28.75 39.184C23.2 38.545 26.207 37 33 37C36.85 37 40 37.42 40 37.934Z" fill="black"/>
</svg>
