<svg width="64" height="64" viewBox="0 0 64 64" fill="none" xmlns="http://www.w3.org/2000/svg">
<path fill-rule="evenodd" clip-rule="evenodd" d="M0 32V64H32H64V32V0H32H0V32ZM41 15.5L47.524 21.809C47.524 21.809 43.92 19.737 40.083 16.637C36.246 13.537 32.5 10.5 32.5 10.5L25 16L17.42 21.754L25.5 14L32.5 7C32.5 7 37.566 12.515 41 15.5ZM35 17L32.5 19.5L30 17L32.5 14.5L35 17ZM44 22L42.0818 25.312H34.25H26.775L32.5 37.5L38.5 27.5H41L36.631 35.374L32.5 42.319L27.5 33.5L21 22C30.254 22 44 22 44 22ZM22.5 31L20 33.5L17.5 31L20 28.5L22.5 31ZM48.5 31L46 33.5L43.5 31L46 28.5L48.5 31ZM23.803 39.312C27.487 42.234 32.5 46 32.5 46C32.5 46 36.192 43.269 40.382 39.965L48 34.5L40.3 42.319L32.5 49.5L27 44.5L16.303 34.039C16.303 34.039 20.12 36.391 23.803 39.312Z" fill="black"/>
</svg>
