<svg width="64" height="65" viewBox="0 0 64 65" fill="none" xmlns="http://www.w3.org/2000/svg">
<path fill-rule="evenodd" clip-rule="evenodd" d="M0 32.341V64.341H32H64V32.341V0.341034H32H0V32.341ZM54 7V11H58V13H54V17H52V13H48V11H52V7H54ZM45 19.841C43.134 21.766 40.554 23.299 40.554 23.299C40.554 23.299 46.799 16.341 47.863 16.341C48.154 16.341 46.866 17.916 45 19.841ZM36.555 22.799C38.475 23.602 40.823 25.624 41.773 27.293L43.5 33.841L40 29.341C40 29.341 39.99 28.854 37.694 26.823C36.151 25.458 33.766 24.341 32.395 24.341C28.56 24.341 23.5 29.341 23.5 29.341L18.304 33.841L21.5 28.341C21.5 28.341 24.078 24.215 27.415 22.762C31.385 21.034 32.339 21.038 36.555 22.799ZM36 32.841C39.17 36.112 39.805 36.341 45.696 36.341C49.232 36.341 52 37.341 52 37.341C52 37.341 49.097 38.341 45.292 38.341C38.973 38.341 38.376 38.138 34.994 34.835L31.5 31.341L28.006 34.835C24.829 38.113 24.197 38.341 18.304 38.341C14.768 38.341 12 37.341 12 37.341C12 37.341 14.768 36.341 18.304 36.341C24.195 36.341 24.83 36.112 28 32.841C29.866 30.916 31.5 29.341 31.5 29.341C31.5 29.341 34.134 30.916 36 32.841ZM35 37.841C36.935 39.901 38.287 40.341 42.674 40.341C48.373 40.341 48.784 40.726 46.416 43.841C44.97 45.743 45.081 45.871 48.698 46.449L52.5 47.057L48.282 47.199C44.782 47.317 44 47.341 44 47.341L41 52.341L42.674 47.341H38L31.5 42.341L25.5 47.341H20.5L23 52.341L19.5 47.341C19.5 47.341 17.757 47.278 15.39 47.181C11.581 47.024 11.569 47.012 14.83 46.612C17.234 46.316 17.999 45.804 17.58 44.772C17.261 43.985 16.727 42.666 16.393 41.841C15.9 40.622 16.762 40.341 20.999 40.341C25.369 40.341 26.53 39.936 28.179 37.841C29.26 36.466 31.5 34.841 31.5 34.841C31.5 34.841 33.708 36.466 35 37.841ZM18.241 43.591C20.38 46.831 24.074 46.956 26.957 43.886L29.349 41.341H23.052H16.756L18.241 43.591ZM37 43.841C38.292 45.216 40.343 46.341 41.559 46.341C42.814 46.341 44.478 45.26 45.408 43.841L47.046 41.341H40.849H34.651L37 43.841Z" fill="black"/>
</svg>
